<svg viewBox="315 11.222222222222172 1282.5000000000002 1144.6666666666667" xmlns="http://www.w3.org/2000/svg" overflow="visible" xmlns:xlink="http://www.w3.org/1999/xlink" width="1282.5000000000002px"><g id="Master/Places/Home Office" stroke="none" stroke-width="1" fill="none" fill-rule="evenodd"><ellipse id="Oval" fill="#C9C9C9" opacity=".5" cx="958.5" cy="1056.5" rx="637.5" ry="61.5"/><g id="Background" opacity=".5" transform="translate(321.000000, 111.000000) scale(0.966183574879227 0.965556831228473)"><g id="Background/Blob 1" stroke="none" stroke-width="1" fill="none" fill-rule="evenodd"><path d="M869.490312,1 C892.755389,1.92225471 915.476128,2.67306463 938.178097,3.75966986 C969.204039,5.24710117 998.516884,13.6857318 1027.26162,24.1202161 C1037.65031,27.8920014 1048.00522,31.8411434 1058.0448,36.3637386 C1111.46613,60.4322218 1153.95818,95.8373436 1182.91939,145.017167 C1196.72302,168.457808 1203.97709,193.894302 1207.15551,220.364195 C1211.99823,260.684461 1207.17053,300.347325 1194.25536,338.780517 C1181.74563,376.012412 1161.11839,409.312902 1133.93534,438.957479 C1119.10311,455.13359 1102.71795,469.583429 1084.53084,482.282167 C1056.54443,501.823326 1028.65312,521.486269 1000.60163,540.943479 C992.90959,546.280732 984.675715,550.915653 976.903588,556.152405 C967.836315,562.262933 958.607617,568.242218 950.137238,575.042073 C912.903355,604.937314 894.836382,642.935391 897.166393,689.27869 C897.984775,705.586045 899.121,721.881576 899.722899,738.196025 C900.311032,754.162856 895.142962,768.633978 886.071935,782.031501 C881.843627,788.278003 876.617995,793.530126 870.611521,798.221801 C851.124267,813.448463 829.09302,824.464677 805.695301,833.153971 C770.656284,846.163675 734.397203,854.918 697.265931,860.621791 C670.549635,864.725824 643.740739,867.970269 616.719113,869.629145 C583.069094,871.693577 549.420325,871.303392 515.807846,869.280344 C473.354588,866.722861 431.187889,861.708396 389.257694,854.931006 C351.62338,848.84649 314.022853,842.549146 277.041743,833.480308 C234.792454,823.121496 192.917319,811.586217 152.869153,794.88986 C129.05974,784.962616 106.556736,772.934286 86.3599665,757.26778 C63.4264977,739.478905 47.2553176,717.39327 38.2080661,690.617141 C33.6781836,677.210159 33.1914089,663.507582 34.9307837,649.805006 C39.2904828,615.461659 50.0132903,583.102343 69.9622923,553.767549 C79.7365775,539.393381 91.5968611,526.686367 104.247997,514.582365 C116.075746,503.265827 128.207572,492.221235 139.714975,480.622109 C146.848914,473.432069 153.392217,465.6603 159.632693,457.750192 C174.762751,438.569659 178.94601,417.075212 174.700184,393.621565 C172.520334,381.58023 170.856041,369.344984 170.448101,357.153486 C169.504584,329.005799 178.127628,302.888255 191.235506,277.901065 C202.254884,256.896122 217.020799,238.458123 234.095453,221.59032 C286.091497,170.219551 345.922235,129.172122 414.627539,99.9957664 C469.984706,76.486548 525.927504,54.2980456 583.469525,35.9262588 C614.35907,26.0640453 646.160847,19.6460984 678.441891,15.7442516 C713.601037,11.4947856 748.8215,7.45105345 784.134562,4.65591226 C812.657806,2.39875298 841.359992,2.13035321 869.490312,1" id="Fill-1" fill="#F1ECE8"/></g></g><g id="Decoration" transform="translate(205.000000, 233.000000) scale(1 1)"><g id="Decoration/Scribbles" stroke="none" stroke-width="1" fill="none" fill-rule="evenodd"><path d="M868.673,577.7326 C865.821,574.6136 865.834,574.6476 862.135,575.9506 C861.127,576.3046 860.024,576.3956 858.96,576.5836 C856.207,577.0696 853.451,576.6306 850.606,577.6746 C847.736,578.7286 844.264,578.7696 841.174,578.3596 C839.248,578.1046 837.862,578.3506 836.12,578.9616 C829.944,581.1286 825.07,586.4206 818.011,586.4676 C817.385,586.4716 816.778,587.1896 816.138,587.5266 C812.427,589.4796 808.363,590.8686 805.513,594.1916 C800.456,594.2776 797.504,598.5416 793.308,600.3516 C789.042,602.1926 785.85,605.2216 783.534,609.2936 C782.862,610.4756 781.614,611.6936 780.365,612.1216 C775.428,613.8086 772.862,617.8646 770.117,621.7716 C768.89,623.5176 767.478,625.2436 766.748,627.2016 C765.769,629.8316 765.433,632.6936 764.705,635.4256 C763.618,639.5126 766.958,643.3366 771.223,642.7806 C774.392,642.3686 777.544,641.7816 780.724,641.5226 C784.263,641.2346 788.027,642.0556 790.671,638.5716 C791.026,638.1046 792.337,638.3706 793.203,638.2816 C794.078,638.1916 795.482,638.3886 795.741,637.9366 C797.999,634.0046 801.922,634.8556 805.382,634.2596 C807.441,633.9056 810.887,633.5946 811.173,632.5626 C811.856,630.0926 813.353,630.8936 814.735,630.4076 C818.099,629.2216 821.625,628.1076 824.545,626.1566 C827.216,624.3716 830.044,622.1526 832.922,621.4296 C833.924,621.1776 835.118,620.7696 835.725,620.0266 C837.792,617.4906 840.208,615.9116 843.586,615.9656 C844.248,615.9766 845.316,615.7236 845.521,615.2806 C847.165,611.7146 851.124,611.5316 853.821,609.5246 C856.148,607.7946 859.637,607.3636 861.489,605.3336 C863.666,602.9496 866,601.5866 868.884,600.5406 C870.315,600.0206 872.287,598.8826 872.554,597.6956 C873.179,594.9196 875.571,594.8546 877.236,593.8346 C880.52,591.8216 884.085,590.2706 887.389,588.2876 C888.77,587.4596 889.782,586.0166 890.963,584.8546 C887.031,584.1126 885.17,579.8396 881.284,580.9596 C880.957,581.0526 880.242,580.5086 880.002,580.0916 C877.226,575.2816 873.179,576.6366 868.673,577.7326 M903.006,449.4846 C904.851,447.9696 906.443,446.8086 907.849,445.4556 C908.705,444.6306 909.915,443.4786 909.869,442.5276 C909.629,437.5806 910.986,433.0776 912.808,428.5836 C913.707,426.3636 912.281,423.8636 910.469,423.7986 C905.857,423.6346 900.66,420.6336 896.672,425.7046 C896.253,426.2366 895.065,426.3046 894.224,426.3366 C892.234,426.4116 890.113,426.7526 888.277,426.2096 C886.097,425.5636 884.767,429.1456 882.599,426.9986 C880.332,428.9436 877.41,427.4676 874.998,428.4176 C869.418,430.6136 864.242,433.8126 858.252,435.0136 C857.285,435.2086 856.135,435.8976 855.623,436.7086 C852.653,441.4046 847.692,442.9976 843.095,445.2956 C839.448,447.1196 835.916,449.2866 832.657,451.7316 C829.969,453.7496 829.607,458.3946 825.151,458.5756 C824.987,463.2406 818.807,463.2466 818.194,467.5626 C812.438,470.3186 811.586,475.4616 811.89,480.4716 C811.027,482.1736 809.04,480.7666 808.674,483.2686 C808.263,486.0836 804.48,488.3266 807.25,491.8066 C807.287,491.8536 807.049,492.0886 806.983,492.2526 C805.018,497.0986 806.119,502.0576 806.534,506.9716 C806.616,507.9516 807.225,509.0646 807.93,509.7826 C811.221,513.1306 814.617,516.3766 818.016,519.6186 C818.369,519.9566 818.995,520.2336 819.465,520.1936 C825.996,519.6326 832.61,522.7516 839.085,519.7466 C840.683,519.0046 842.374,518.4536 843.935,517.6446 C846.612,516.2546 848.964,514.4306 852.444,515.0466 C854.759,515.4586 857.326,515.3406 858.634,512.0806 C859.403,510.1606 861.544,508.6676 863.311,507.2946 C867.408,504.1086 871.833,501.3236 875.78,497.9686 C878.657,495.5236 881.063,492.4966 883.527,489.5996 C885.218,487.6126 886.741,485.4646 888.175,483.2816 C890.433,479.8416 892.65,476.3686 894.695,472.8006 C896.008,470.5106 896.404,467.3486 898.241,465.7896 C901.053,463.3996 901.439,460.8776 900.531,457.9506 C906.738,454.2566 906.277,453.2676 903.006,449.4846 M976.689,425.0606 C979.375,428.3646 982.101,432.2816 985.428,435.5926 C987.415,437.5716 990.039,438.7426 989.776,442.1846 C989.715,442.9636 990.324,444.0076 990.944,444.5896 C994.995,448.3996 995.461,453.7666 997.281,458.5676 C1000.015,465.7796 998.577,473.1976 998.755,480.5366 C998.767,481.0406 998.593,481.6976 998.257,482.0356 C996.119,484.1796 996.875,486.5216 997.323,487.8636 C996.001,490.5116 994.938,492.4006 994.095,494.3816 C992.209,498.8176 990.445,503.3026 988.597,507.7536 C988.411,508.2016 988.048,508.8016 987.657,508.9026 C983.293,510.0306 983.937,513.0776 984.948,516.3836 C982.04,518.0896 981.08,522.1996 976.998,522.3546 C976.174,524.7726 975.336,527.1856 974.537,529.6116 C974.374,530.1056 974.36,530.6466 974.248,531.3446 C971.7,532.9766 968.368,533.2896 966.855,536.9296 C965.72,539.6576 961.241,540.1146 960.475,543.8126 C960.354,544.3966 959.544,544.8676 959.002,545.3306 C955.621,548.2146 952.441,551.1116 950.085,555.1146 C948.503,557.8046 945.375,560.0056 942.443,561.3216 C940.746,562.0826 940.089,562.2676 939.686,564.2096 C939.11,566.9796 938.214,567.2046 935.112,567.5186 C927.166,574.5896 919.918,581.0396 912.152,587.9496 C912.99,593.9406 913.927,600.2646 914.739,606.6056 C915.167,609.9476 915.288,613.3286 915.721,616.6696 C915.986,618.7136 913.746,619.3876 913.672,621.7046 C913.583,624.4816 914.104,628.1556 911.142,630.4086 C910.905,630.5876 910.816,631.0786 910.811,631.4266 C910.7,638.3536 906.819,643.8486 903.905,649.7126 C903.609,650.3106 903.526,651.3426 903.1,651.4976 C898.146,653.2866 896.843,657.9996 894.437,661.8796 C893.575,663.2716 891.695,664.0326 890.838,665.4246 C888.491,669.2336 885.713,672.6966 882.576,675.8126 C879.67,678.7016 876.261,681.0796 873.251,683.8726 C870.244,686.6626 867.512,689.7466 864.543,692.5796 C863.606,693.4726 862.303,693.9926 861.146,694.6446 C860.532,694.9906 859.571,695.0806 859.282,695.5836 C856.372,700.6416 850.823,702.7496 846.946,706.7196 C845.784,707.9106 844.763,709.8326 842.398,708.7016 C842.007,708.5136 841.07,709.0936 840.585,709.5366 C835.587,714.0956 830.332,717.8166 823.632,720.0396 C818.148,721.8586 813.519,726.1696 808.382,729.1576 C805.159,731.0306 801.672,732.4426 798.358,734.1676 C796.63,735.0666 795.031,736.2096 793.358,737.2126 C789.985,739.2326 787.095,741.9226 782.534,741.7536 C780.067,741.6636 777.367,743.3576 775.05,744.7186 C771.718,746.6766 768.136,747.8166 764.534,749.0686 C760.831,750.3576 756.905,751.6016 753.787,753.8496 C748.549,757.6276 741.99,757.6806 736.606,760.8226 C736.057,761.1426 735.028,760.5386 734.229,760.5616 C733.329,760.5866 732.422,760.7856 731.549,761.0226 C731.266,761.0996 731.057,761.7906 730.854,761.7716 C722.433,760.9776 714.326,763.5676 706.027,764.027943 C705.784,764.0416 705.517,763.6246 705,763.1876 C705.909,760.5696 708.409,759.8596 710.587,758.8086 C713.265,757.5186 716.243,756.8606 718.275,754.3046 C718.909,753.5056 720.551,753.5556 721.681,753.0906 C724.8,751.8096 728.255,750.9616 730.914,749.0296 C735.594,745.6286 740.334,742.8146 746.203,742.2166 C748.562,741.9776 751.938,739.6386 753.469,737.5066 C756.774,738.9056 759.342,738.0276 762.4,735.9866 C767.867,732.3366 773.668,728.7446 779.855,726.7806 C783.402,725.6546 786.896,724.7366 789.998,722.6966 C791.675,721.5946 793.009,719.9236 794.754,718.9866 C797.11,717.7226 799.01,716.1246 802.364,716.0216 C805.788,715.9176 809.849,713.0426 812.225,710.2046 C813.93,708.1686 816.179,709.3426 817.104,708.0026 C818.886,705.4226 821.725,704.7036 823.984,703.0296 C825.448,701.9436 826.764,701.2186 828.543,700.6876 C830.702,700.0436 832.682,698.4606 834.465,696.9586 C838.027,693.9576 841.306,690.6196 844.894,687.6536 C846.642,686.2086 848.944,685.4506 850.78,684.0896 C853.937,681.7526 857.139,679.4056 859.923,676.6586 C863.134,673.4906 865.766,669.7396 868.935,666.5246 C870.883,664.5466 873.392,663.1306 875.605,661.4066 C879.818,658.1246 884.321,655.1496 886.046,649.5716 C886.396,648.4396 888.152,647.8126 889.021,646.7556 C891.159,644.1536 892.582,638.5146 892.898,635.1226 C893.036,633.6346 894.646,632.2856 896.164,630.0076 C896.222,629.7286 893.092,628.2656 896.348,626.8406 C899,625.6786 900.758,620.5646 900.301,617.6666 C900.085,616.2906 899.719,614.6536 900.234,613.4976 C902.543,608.3166 900.083,603.3226 899.941,598.2546 C899.929,597.8366 899.318,597.4366 898.806,596.8076 C896.005,598.7316 892.886,600.2456 890.593,602.5736 C885.195,608.0566 878.244,610.9396 871.848,614.7806 C869.242,616.3446 866.438,618.0696 864.685,620.4336 C862.511,623.3656 858.092,622.9586 856.695,626.5756 C851.372,626.8586 847.652,630.6106 843.231,632.8336 C838.627,635.1466 833.79,636.9476 829.628,640.2116 C827.188,642.1266 824.091,643.7566 821.083,644.2456 C817.732,644.7906 815.196,646.7366 812.235,647.6866 C806.152,649.6386 800.225,652.4976 793.592,652.3496 C793.061,652.3376 792.486,652.4446 791.997,652.6496 C781.969,656.8656 781.971,656.8706 771.317,656.0156 C766.056,658.6276 761.996,652.6686 756.842,653.9366 C756.194,654.0956 755.142,652.7746 754.334,652.0736 C753.344,651.2126 752.409,650.2896 751.461,649.3816 C751.086,649.0236 750.402,648.6096 750.43,648.2666 C750.836,643.2406 747.751,638.3076 750.027,633.2406 C750.246,632.7496 750.531,632.1896 750.483,631.6916 C750.167,628.4866 751.145,625.8266 752.973,623.1266 C755.919,618.7726 758.366,614.0826 761.038,609.5416 C762.355,607.3046 765.657,606.5946 765.759,603.4186 C770.668,603.6096 770.57,596.8796 775.153,596.6216 C776.522,591.9216 781.644,591.4136 784.566,588.3306 C786.696,586.0816 790.297,585.2846 793.085,583.5816 C795.48,582.1186 797.65,580.2906 800.592,578.1296 C801.007,578.1836 802.392,578.3656 803.776,578.5466 C803.663,578.2716 803.551,577.9966 803.439,577.7216 C805.569,576.3196 807.543,574.5036 809.87,573.6186 C812.898,572.4666 815.832,571.2426 818.768,569.8586 C821.769,568.4436 825.409,568.4416 828.714,567.6026 C832.601,566.6166 836.382,565.1866 840.292,564.3296 C845.16,563.2606 849.956,562.0016 855.153,562.4566 C857.286,562.6436 859.807,561.6706 862.231,561.9196 C863.288,562.0286 864.366,562.0096 865.408,562.1966 C872.239,563.4196 879.239,563.0446 886.07,564.8686 C888.552,565.5316 889.13,566.6286 889.799,568.4806 C895.391,566.1706 897.287,573.5036 904.475,572.1626 C907.687,570.6016 912.768,567.5486 916.845,563.0136 C917.081,562.7506 917.412,562.5576 917.726,562.3786 C920.345,560.8766 923.484,559.8646 925.449,557.7556 C927.388,555.6776 928.753,553.2196 931.598,552.0326 C932.632,551.5996 933.437,550.3556 934.087,549.3186 C935.415,547.2026 936.746,545.6416 939.39,544.5596 C942.065,543.4656 944.029,540.4716 946.106,538.1326 C947.843,536.1756 949.302,533.9706 950.852,531.8516 C951.046,531.5866 951.03,530.8826 951.132,530.8786 C955.304,530.7096 955.248,526.0356 958.117,524.2646 C959.619,523.3366 959.944,520.5016 960.986,518.0976 C964.111,519.1286 965.239,516.2626 966.702,513.8216 C967.709,512.1406 968.884,510.5536 969.801,508.8286 C970.434,507.6356 970.71,506.2606 971.226,505.0006 C971.609,504.0626 971.92,502.9736 972.606,502.3026 C976.212,498.7746 979.805,495.4306 978.807,489.5146 C978.564,488.0766 979.919,486.1856 980.905,484.7536 C985.127,478.6266 986.33,472.2706 983.071,465.3046 C982.501,464.0846 981.992,462.3566 982.421,461.2316 C984.064,456.9246 980.788,453.7946 979.715,450.3306 C978.826,447.4616 975.321,445.4096 972.996,442.9766 C972.25,442.1966 971.249,441.4636 970.924,440.5176 C970.095,438.1036 968.01,437.5866 966.099,436.5846 C964.622,435.8106 963.558,434.2736 962.105,433.4306 C958.118,431.1186 954.16,428.6366 949.895,426.9916 C948.446,426.4326 946.46,426.8116 945,425.5636 C944.74,425.3406 944.243,425.0716 944.025,425.1756 C939.233,427.4566 935.32,423.4916 930.882,423.3696 C930.535,423.3596 930.185,423.4896 929.319,423.6496 C928.033,428.3876 926.74,433.3706 925.314,438.3136 C924.488,441.1696 923.331,443.9316 922.535,446.7956 C921.819,449.3756 921.797,452.2116 920.747,454.6206 C918.878,458.9106 916.474,462.9666 914.27,467.1096 C913.844,467.9096 912.832,468.6976 912.902,469.4116 C913.308,473.5646 909.864,475.4236 907.972,478.2026 C907.484,478.9196 906.752,479.7986 906.835,480.5216 C907.318,484.7006 904.096,487.0876 902.239,490.0316 C900.363,493.0056 898.501,496.0646 895.201,498.0366 C893.328,499.1546 892.076,501.3886 890.688,503.2286 C888.58,506.0206 887.009,509.2776 883.384,510.6146 C882.611,510.8996 882.101,511.8466 881.419,512.4286 C877.934,515.4056 875.332,519.6376 870.236,520.3376 C866.03,525.6746 858.23,526.1446 854.39,532.0316 C853.951,532.7046 852.877,533.3366 852.097,533.3376 C850.286,533.3396 848.435,532.5996 846.674,532.8036 C844.837,533.0166 843.127,534.3206 841.289,534.5426 C838.642,534.8596 835.777,534.0746 833.275,534.7536 C828.487,536.0526 824.185,535.9626 819.444,534.1076 C815.022,532.3776 810.502,531.0866 806.146,528.9556 C802.044,526.9486 801.069,522.9676 798.281,520.2576 C796.887,518.9016 795.71,517.2826 794.627,515.6546 C793.35,513.7346 791.417,512.3326 792.486,509.1346 C793.172,507.0886 791.562,504.2966 791.058,501.8236 C790.637,499.7546 790.608,497.8086 790.969,495.5716 C791.966,489.4066 792.488,483.2016 795.222,477.4426 C795.535,476.7826 795.022,475.7716 795.085,474.9386 C795.153,474.0486 795.444,472.4136 795.65,472.4116 C798.745,472.3856 798.76,470.0786 799.277,467.9916 C799.472,467.2066 800.108,466.1686 800.784,465.9276 C803.518,464.9576 804.263,462.5576 805.529,460.3656 C807.092,457.6606 807.898,454.1936 811.536,453.1226 C811.958,452.9986 812.44,452.3806 812.527,451.9226 C813.24,448.1706 816.512,447.1116 819.154,445.2796 C821.355,443.7526 823.671,442.0596 825.138,439.8986 C826.688,437.6156 827.517,434.9656 830.932,435.0616 C831.231,435.0706 831.711,434.8046 831.819,434.5456 C833.846,429.6436 838.942,429.1616 842.824,427.0426 C848.116,424.1546 853.621,421.6476 859.103,419.1256 C860.862,418.3156 862.86,418.0396 864.708,417.4036 C866.114,416.9196 867.768,417.4246 868.866,415.4996 C869.395,414.5716 871.773,414.7036 873.311,414.3456 C876.424,413.6216 879.553,414.5446 882.736,411.9476 C885.144,409.9836 889.712,410.6626 893.319,410.1756 C896.855,409.6986 900.406,409.3186 903.925,408.7416 C907.443,408.1656 910.925,406.9726 914.42,408.7546 C916.547,407.6826 917.13,406.0256 916.98,403.7986 C916.63,398.5996 916.503,393.3866 916.16,388.1876 C915.955,385.0836 914.806,382.0226 916.08,378.8726 C916.301,378.3286 916.034,377.2376 915.594,376.8326 C912.896,374.3486 914.978,371.2456 914.854,368.6016 C914.762,366.6676 915.099,365.2836 913.772,363.4616 C912.503,361.7176 911.824,359.2336 911.699,357.0286 C911.391,351.5856 909.925,346.6196 907.23,341.8996 C906.27,340.2196 905.942,338.1816 905.305,336.3146 C903.731,331.6936 901.412,327.4796 898.785,323.3566 C895.846,318.7436 897.129,313.5576 901.531,310.6076 C902.089,310.2346 903.086,309.8656 903.555,310.1126 C907.96,312.4276 913.344,313.0156 914.486,319.8686 C915.305,324.7736 918.625,329.2636 920.841,333.9346 C921.072,334.4206 921.73,335.0226 921.603,335.3146 C920.01,338.9666 922.446,341.9366 923.666,344.7816 C926.137,350.5486 926.128,357.0816 929.528,362.5086 C930.058,363.3536 930.181,364.5506 930.209,365.5926 C930.333,370.2236 930.241,374.8616 930.45,379.4866 C930.601,382.8246 930.86,386.1926 931.503,389.4626 C932.411,394.0806 932.83,398.4846 931.062,403.0916 C929.657,406.7516 932.571,410.5286 936.651,410.5046 C940.706,410.4816 944.583,410.6356 948.058,413.0116 C948.328,413.1966 948.766,413.2216 949.114,413.1916 C951.784,412.9616 954.069,413.5826 956.361,415.1906 C958.609,416.7666 961.343,417.6556 963.886,418.7956 C964.996,419.2936 966.132,419.8736 967.311,420.0466 C969.34,420.3456 970.984,420.7166 972.254,422.7606 C972.981,423.9296 975.048,424.2646 976.689,425.0606" id="Fill-1" fill="#000" transform="translate(851.988274, 537.030200) rotate(17.000000) translate(-851.988274, -537.030200)"/><path d="M174.70118,235.13317 C176.872731,235.878581 178.801372,237.611067 180.565045,239.208161 C184.468129,242.744924 188.242506,246.427178 191.964195,250.155529 C192.813896,251.00656 193.125418,252.371773 193.884464,253.344799 C194.743065,254.444831 195.653442,255.732385 196.845665,256.303266 C200.705558,258.151126 203.405612,260.985447 205.378406,264.726229 C206.20344,266.291126 207.429886,267.668176 208.60318,269.019074 C210.102195,270.748162 212.104347,272.145331 213.234807,274.07036 C216.499406,279.629917 220.861031,284.847612 220.31842,291.810021 C219.728475,292.177043 219.343393,292.593745 219.13845,292.518569 C213.157419,290.341458 206.717893,289.022581 202.595814,283.395427 C201.903299,282.449962 200.547656,282.011424 199.564257,281.252517 C198.780244,280.647799 197.951032,280.013806 197.400964,279.21459 C195.838871,276.946182 194.606149,274.418885 192.827505,272.350843 C192.170782,271.587106 190.355858,271.819122 188.585338,271.514618 C187.150424,268.251654 186.007922,264.327093 181.36213,262.748183 C179.179058,262.006417 177.548293,259.440558 175.885485,257.513121 C175.491938,257.055985 175.743179,256.041979 175.800984,255.91982 L175.806178,255.910004 L165.091178,244.009429 C165.526168,242.072977 166.111525,239.469607 166.767946,236.550619 C169.11861,234.202622 172.090085,234.235853 174.70118,235.13317 Z M221.614009,197.718242 C222.560354,198.305976 223.506026,199.541566 223.681607,200.609343 C224.432312,205.173299 227.269006,208.440336 229.692372,212.122595 C231.122806,214.295593 232.39286,216.569939 234.171925,218.521878 C234.524779,218.909279 235.01275,219.569289 234.896133,219.929962 C233.56292,224.075982 236.2141,226.734972 238.185332,229.802999 C239.267572,231.48617 239.434278,233.750132 240.057974,235.738528 C240.625883,237.548397 240.214345,240.320901 244.222463,238.556839 C242.780135,244.04178 244.495587,247.720926 246.925148,251.514677 C248.871027,254.553053 250.142535,258.015628 250.291562,261.995043 C250.464208,266.564108 250.803179,268.68911 248.858303,273.14366 C243.89839,271.208412 238.880977,269.74881 236.360098,264.103607 C234.86005,260.745888 232.599391,257.728543 230.312248,253.946504 C230.513374,253.567602 231.163185,252.341988 231.815448,251.11013 C228.526168,248.534532 227.744496,244.764124 226.604693,241.274463 C225.440642,237.70706 224.672678,234.080402 221.882384,231.225065 C220.814472,230.133182 220.164228,228.421669 219.815131,226.881716 C218.985913,223.2214 217.466319,220.209614 214.719379,217.445767 C213.065475,215.780786 212.971417,212.644031 211.918312,210.283341 C210.842301,207.873301 209.450869,205.604632 208.079219,203.05306 C208.425724,202.30508 209.344783,201.197664 209.390538,200.054393 C209.550205,196.089032 212.833138,195.20534 215.378187,194.917415 C217.342664,194.696069 219.652036,196.500198 221.614009,197.718242 Z M261.426019,170.207004 C265.069511,170.928301 267.037682,173.271097 268.38521,176.64773 C270.070085,180.869785 272.420289,184.786124 273.330658,189.370485 C273.621615,190.844372 275.531098,191.996646 276.701407,193.296407 C276.484086,193.376359 276.266691,193.457724 276.049295,193.539089 C276.828199,195.565358 277.594023,197.598022 278.390245,199.618118 C278.976515,201.10465 280.471161,202.903609 280.057836,203.994337 C278.524727,208.036415 281.73917,210.999657 281.924458,214.597903 C281.992989,215.924891 282.894475,217.341557 283.744535,218.469465 C286.266981,221.814915 287.000871,223.970527 286.605258,227.493012 C286.505928,228.375027 286.444617,229.423309 286.818363,230.168675 C289.147841,234.80475 286.071944,238.479911 284.954158,243.054987 C281.588203,240.956156 278.936097,238.814722 276.686642,236.04296 C275.349162,234.393146 273.548768,233.118426 271.209965,230.997661 C271.237479,230.05382 272.533837,227.624371 270.137242,225.998355 C271.020386,218.834289 266.672962,212.967323 264.625122,206.686276 C262.458944,200.042155 262.502332,192.958701 259.532706,186.55358 C258.417673,184.145036 256.94821,181.946625 256.77497,178.712963 C256.537161,174.252359 257.981923,172.01762 261.426019,170.207004 Z" id="Combined-Shape" fill="#D08F52" transform="translate(226.379901, 231.367224) rotate(-41.000000) translate(-226.379901, -231.367224)"/><path d="M718.267557,507.653363 C721.630557,508.424363 723.380557,510.701363 724.321557,513.853363 C721.598557,517.977363 721.077557,522.685363 721.041557,527.535363 C721.005557,532.279363 719.677557,534.184363 714.171557,536.696363 C713.549557,534.493363 712.609557,532.693363 712.630557,530.904363 C712.667557,527.690363 713.016557,524.423363 713.724557,521.289363 C714.523557,517.753363 715.345557,514.339363 714.778557,510.636363 C714.359557,507.901363 715.665557,507.056363 718.267557,507.653363 Z M748.009457,502.559663 C748.767457,504.057663 749.595457,505.693663 750.762457,508.001663 C750.535457,510.429663 750.528457,514.372663 749.681457,518.126663 C749.168457,520.396663 747.734457,522.778663 746.025457,524.371663 C744.104457,526.162663 739.555457,522.592663 740.365457,519.364663 C741.780457,513.728663 740.104457,506.690663 748.009457,502.559663 Z M795.462857,497.103263 C797.714857,502.535263 795.201857,515.489263 786.825857,516.698263 C783.927857,510.840263 788.364857,505.074263 787.301857,499.506263 C788.498857,498.220263 789.483857,496.898263 790.723857,495.891263 C792.679857,494.303263 794.489857,494.759263 795.462857,497.103263 Z M656.739557,489.315663 C656.192557,494.902663 657.824557,500.696663 655.115557,506.099663 C653.791557,508.743663 652.813557,511.559663 651.459557,514.827663 C646.248557,512.017663 647.023557,507.477663 647.050557,503.571663 C647.074557,499.883663 648.154557,496.210663 648.655557,492.515663 C648.837557,491.173663 648.685557,489.785663 648.685557,487.772663 C649.105557,487.460663 649.998557,486.533663 651.088557,486.038663 C654.129557,484.656663 657.052557,486.124663 656.739557,489.315663 Z M701.147057,461.891163 C707.224057,462.032163 708.736057,463.431163 708.278057,468.894163 C707.806057,474.526163 707.672057,480.358163 702.861057,484.953163 C702.186057,484.453163 701.209057,484.104163 700.919057,483.452163 C699.144057,479.438163 699.281057,471.335163 701.147057,461.891163 Z M595.914657,450.601163 C598.572657,455.095163 598.885657,459.880163 597.528657,464.866163 C596.216657,469.686163 598.518657,475.109163 595.010657,479.548163 C590.858657,478.198163 587.374657,472.658163 588.984657,468.515163 C589.978657,465.958163 589.512657,464.108163 588.831657,461.876163 C586.882657,455.493163 588.746657,452.479163 595.914657,450.601163 Z M823.928357,454.554663 C827.955357,455.902663 827.663357,459.342663 827.208357,462.571663 C826.721357,466.025663 825.772357,469.413663 824.929357,473.264663 C823.465357,473.889663 821.516357,474.721663 819.709357,475.493663 C815.054357,471.647663 817.497357,467.171663 817.757357,463.013663 C818.010357,458.963663 819.527357,455.745663 823.928357,454.554663 Z M749.145457,440.630063 L749.499361,440.92421 C752.662281,443.563321 755.169493,446.00992 752.497457,450.623063 C751.626457,452.127063 751.326457,454.613063 751.934457,456.203063 C753.944457,461.458063 749.451457,463.815063 747.548457,468.582063 C745.870457,464.003063 742.863457,461.184063 743.919457,456.827063 C744.246457,455.473063 744.142457,453.891063 743.805457,452.520063 C742.496457,447.196063 744.925457,443.697063 749.145457,440.630063 Z M856.744957,447.414463 C858.283957,447.741463 860.930957,451.187463 860.307957,452.987463 C858.550957,458.068463 858.833957,464.201463 852.901957,467.856463 C849.619957,464.248463 848.924957,460.536463 850.677957,456.305463 C851.283957,454.841463 851.762957,453.313463 852.150957,451.776463 C852.814957,449.142463 854.958957,447.036463 856.744957,447.414463 Z M787.943957,435.349163 C789.776957,438.942163 790.828957,442.101163 789.260957,445.934163 C788.211957,448.501163 787.956957,451.495163 787.841957,454.317163 C787.680957,458.275163 784.728957,460.029163 782.484957,463.218163 C779.357957,457.180163 777.686957,451.999163 780.833957,446.259163 C781.492957,445.056163 781.599957,443.467163 781.670957,442.041163 C781.858957,438.209163 783.805957,436.081163 787.943957,435.349163 Z M661.761457,432.322063 C662.299457,433.394063 662.382457,434.693063 662.759457,436.260063 C660.941457,438.111063 659.804457,440.450063 660.738457,443.598063 C661.956457,447.701063 658.937457,450.292063 656.621457,452.921063 C656.047457,453.574063 654.373457,453.259063 652.008457,453.522063 C653.440457,447.316063 651.018457,441.759063 654.127457,436.620063 C654.512457,435.985063 654.186457,434.915063 654.174457,434.046063 C654.144457,431.733063 654.771457,429.661063 657.273457,429.154063 C659.633457,428.676063 660.863457,430.533063 661.761457,432.322063 Z M610.891557,413.925963 C612.244557,416.086963 613.522557,418.125963 614.724557,420.042963 C614.206557,423.023963 613.830557,425.847963 613.187557,428.608963 C612.876557,429.944963 612.292557,431.350963 611.434557,432.399963 C609.333557,434.966963 607.857557,434.624963 606.366557,431.532963 C605.760557,430.276963 604.995557,429.098963 604.169557,427.649963 C605.943557,423.067963 606.228557,417.857963 610.891557,413.925963 Z M730.292157,415.201163 C730.122157,419.953163 730.086157,424.877163 727.571157,429.150163 C726.878157,430.325163 725.302157,431.493163 724.024157,431.626163 C723.191157,431.713163 721.809157,430.088163 721.284157,428.949163 C719.147157,424.314163 721.341157,419.881163 722.440157,415.481163 C722.897157,413.655163 724.334157,412.074163 725.187157,410.619163 C728.938157,410.398163 730.388157,412.542163 730.292157,415.201163 Z M692.461557,391.015663 C697.001557,394.446663 697.800557,396.952663 696.587557,401.363663 C694.919557,407.429663 693.254557,413.515663 692.065557,419.685663 C691.420557,423.030663 689.803557,425.507663 687.846557,427.921663 C687.249557,427.677663 686.730557,427.631663 686.624557,427.398663 C684.618557,422.944663 684.506557,413.140663 685.744557,408.799663 C686.799557,405.102663 687.415557,401.209663 687.636557,397.369663 C687.828557,394.020663 690.358557,392.959663 692.461557,391.015663 Z M773.057257,392.460963 C773.508257,394.180963 774.672257,396.108963 774.311257,397.686963 C772.954257,403.612963 771.276257,409.483963 769.334257,415.246963 C768.682257,417.181963 766.882257,418.730963 765.127257,421.106963 C763.962257,419.748963 762.537257,418.854963 762.411257,417.802963 C761.976257,414.182963 760.911257,410.597963 763.100257,406.898963 C764.602257,404.362963 764.795257,401.085963 765.828257,398.231963 C766.846257,395.419963 767.967257,392.499963 773.057257,392.460963 Z M637.815257,394.162663 C639.870257,394.860663 641.658257,395.465663 644.149257,396.309663 C643.438257,399.817663 642.826257,403.114663 642.087257,406.383663 C641.613257,408.482663 640.798257,410.511663 640.417257,412.622663 C639.946257,415.233663 638.396257,416.280663 635.973257,416.424663 C632.399257,414.501663 633.097257,410.872663 632.640257,409.057663 C634.541257,403.584663 636.081257,399.152663 637.815257,394.162663 Z M575.462957,394.937663 C578.981957,395.121663 580.074957,398.058663 579.963957,400.160663 C579.713957,404.880663 578.452957,409.547663 577.602957,414.235663 C577.048957,414.371663 576.496957,414.506663 575.943957,414.642663 C574.712957,412.991663 573.057957,411.501663 572.351957,409.650663 C571.365957,407.063663 570.801957,404.229663 570.577957,401.458663 C570.297957,397.986663 573.736957,397.009663 575.462957,394.937663 Z M809.133885,391.790267 L809.187757,391.916763 C809.616757,392.903763 809.927757,393.940763 809.952757,394.010763 C809.586757,398.760763 809.457757,402.546763 808.957757,406.282763 C808.526757,409.502763 806.589757,411.818763 803.559757,413.096763 C801.369757,414.021763 799.652757,413.115763 799.096757,410.790763 C798.179757,406.965763 800.007757,403.563763 800.808757,400.007763 C801.277757,397.927763 801.831757,395.865763 802.364757,393.799763 C802.543757,393.109763 802.576757,392.228763 803.024757,391.791763 C803.987757,390.850763 805.070757,389.807763 806.298757,389.415763 C808.155854,388.822537 808.598799,390.510685 809.133885,391.790267 Z M848.733357,379.184663 C848.047357,389.449663 848.421357,400.134663 840.842357,409.473663 C835.674357,402.722663 836.758357,396.403663 839.589357,389.783663 C840.899357,386.719663 840.677357,383.116663 842.962357,380.255663 C844.469357,378.369663 845.928357,377.790663 848.733357,379.184663 Z M731.378557,374.914863 C736.434557,378.234863 736.749557,379.241863 734.875557,384.227863 C734.306557,385.740863 733.502557,387.428863 733.699557,388.918863 C734.350557,393.834863 731.958557,396.482863 727.335557,398.280863 C724.493557,393.498863 722.725557,389.145863 726.589557,384.227863 C727.425557,383.164863 726.711557,380.883863 726.711557,378.224863 C727.772557,377.472863 729.631557,376.153863 731.378557,374.914863 Z M675.106957,359.954063 C675.769957,360.204063 676.424957,360.476063 677.694957,360.980063 C675.192957,367.794063 675.066957,375.246063 670.661957,381.929063 C669.946957,381.187063 669.040957,380.638063 668.723957,379.852063 L668.467986,379.210074 C667.158922,375.890909 666.104381,372.531124 667.443957,368.843063 C667.920957,367.530063 667.987957,366.032063 668.046957,364.610063 C668.275957,359.121063 669.932957,358.003063 675.106957,359.954063 Z M608.668057,363.223163 C608.329057,369.227163 606.536057,374.380163 602.442057,379.453163 C597.094057,371.858163 601.142057,364.661163 601.708057,357.584163 C607.710057,355.411163 609.026057,356.869163 608.668057,363.223163 Z M761.781657,340.030763 C762.724657,340.394763 763.971657,341.843763 763.886657,342.697763 C763.227657,349.317763 763.214657,356.046763 760.473657,362.347763 C758.794657,366.207763 755.685657,368.575763 752.125657,372.135763 C752.125657,366.581763 750.988657,361.909763 752.404657,358.217763 C754.297657,353.284763 754.603657,348.048763 756.572657,343.244763 C756.972657,342.271763 757.603657,341.173763 758.446657,340.660763 C759.383657,340.093763 760.862657,339.674763 761.781657,340.030763 Z M703.128057,343.202163 C704.459057,343.734163 706.200057,344.432163 708.092057,345.190163 C707.516057,350.357163 707.236057,355.332163 706.283057,360.175163 C705.922057,362.005163 704.012057,363.531163 702.624057,365.452163 C700.791057,364.583163 699.372057,363.911163 697.385057,362.970163 C697.718057,361.168163 697.642057,359.102163 698.488057,357.533163 C700.056057,354.624163 700.523057,351.909163 698.941057,349.473163 C700.408057,347.276163 701.652057,345.411163 703.128057,343.202163 Z M810.764857,341.483563 C810.347857,346.341563 809.558857,351.232563 808.261857,355.923563 C807.605857,358.299563 805.465857,360.263563 803.865857,362.602563 C800.113857,357.271563 800.112857,351.755563 803.447857,334.457563 C808.741857,333.633563 811.254857,335.789563 810.764857,341.483563 Z M642.251557,341.718763 C646.041557,341.863763 647.413557,343.835763 647.518557,347.004763 C647.714557,352.938763 646.942557,358.429763 641.129557,361.754763 C635.087557,355.560763 635.426557,349.810763 642.251557,341.718763 Z M734.649957,331.610463 C739.032957,335.874463 736.648957,340.476463 735.278957,345.129463 C733.880957,345.752463 732.455957,346.387463 730.472957,347.271463 C728.786957,343.675463 726.516957,340.323463 727.453957,336.538463 C728.233957,333.380463 730.854957,331.272463 734.649957,331.610463 Z M845.946157,310.042963 C846.288157,316.217963 843.216157,321.491963 841.728157,327.180963 C841.154157,329.377963 840.082157,331.278963 840.886157,333.895963 C841.765157,336.755963 839.848157,339.533963 835.184157,344.252963 C832.995157,339.814963 831.905157,336.144963 833.125157,331.168963 C834.408157,325.938963 835.804157,320.496963 835.766157,314.851963 C835.747157,311.987963 837.547157,309.110963 838.560157,306.139963 C839.355157,306.075963 840.405157,305.976963 841.456157,305.912963 C845.010157,305.696963 845.752157,306.564963 845.946157,310.042963 Z M569.635357,309.233463 C573.415357,320.865463 568.422357,330.374463 563.722357,340.616463 C560.595357,337.913463 560.920357,334.570463 560.199357,331.868463 C559.612357,329.667463 560.463357,327.018463 560.929357,324.617463 C561.493357,321.707463 562.667357,319.069463 562.718357,315.865463 C562.764357,312.940463 565.684357,310.442463 569.635357,309.233463 Z M686.905857,301.387263 C693.922857,302.486263 693.927857,306.765263 691.961857,311.704263 C690.441857,315.520263 688.620857,319.075263 689.067857,323.512263 C689.240857,325.238263 687.211857,327.199263 686.150857,329.033263 C684.874857,331.239263 683.560857,333.423263 681.844857,336.325263 C678.471857,328.682263 677.653857,322.211263 681.587857,315.561263 C682.738857,313.615263 683.691857,311.105263 683.538857,308.938263 C683.310857,305.701263 684.467857,303.519263 686.905857,301.387263 Z M713.605957,297.560663 C714.439957,298.183663 715.071957,299.077663 715.779957,299.830663 C713.826957,305.219663 712.232957,310.533663 709.943957,315.529663 C708.849957,317.917663 706.437957,319.700663 704.273957,322.153663 C702.992957,319.196663 702.087957,317.109663 701.161957,314.973663 C702.623957,310.133663 705.300957,305.614663 705.845957,300.252663 C706.168957,297.081663 711.027957,295.637663 713.605957,297.560663 Z M611.262157,294.248463 C612.192157,295.208463 613.716157,296.039463 613.957157,297.150463 C615.640157,304.906463 616.715157,312.729463 614.430157,320.580463 C614.347157,320.863463 613.915157,321.043463 613.394157,321.484463 C605.154157,312.327463 604.177157,301.108463 611.262157,294.248463 Z M745.843357,281.834563 C746.382357,281.946563 747.070357,282.188563 747.767357,282.216563 C751.011357,282.349563 752.137357,283.380563 752.496357,286.177563 C753.507357,294.039563 751.469357,301.428563 748.799357,308.623563 C747.660357,311.692563 745.657357,314.534563 741.948357,316.349563 C741.607357,314.897563 741.087357,313.769563 741.122357,312.658563 C741.266357,308.026563 738.800357,303.122563 742.619357,298.816563 C743.220357,298.139563 743.372357,296.668563 743.138357,295.710563 C741.914357,290.711563 743.725357,286.336563 745.843357,281.834563 Z M659.526757,284.779563 C662.632757,287.419563 663.161757,288.479563 661.300757,292.027563 C659.377757,295.690563 657.760757,299.398563 657.428757,303.628563 C657.162757,307.016563 654.839757,309.355563 652.726757,311.833563 C648.082757,308.871563 649.255757,304.122563 649.500757,300.505563 C649.853757,295.307563 651.936757,290.226563 653.327757,284.916563 C655.183757,284.301563 657.047757,282.672563 659.526757,284.779563 Z M785.044557,290.485363 C787.052557,296.449363 783.451557,306.755363 778.416557,309.677363 C775.143557,304.362363 776.588557,298.845363 777.943557,293.443363 C778.921557,289.550363 782.188557,290.280363 785.044557,290.485363 Z M826.303257,266.469163 C827.393257,266.998163 828.800257,268.636163 828.673257,269.620163 C827.968257,275.087163 828.275257,280.800163 825.228257,285.799163 C824.054257,287.725163 823.168257,289.827163 821.930257,292.288163 C818.534257,285.583163 818.556257,279.051163 819.962257,272.501163 C820.352257,270.684163 821.731257,268.944163 823.034257,267.512163 C823.734257,266.741163 825.528257,266.092163 826.303257,266.469163 Z M696.650057,254.679263 C697.946057,258.340263 698.981057,261.261263 700.156057,264.577263 C698.421057,269.102263 696.677057,274.115263 694.573057,278.972263 C693.337057,281.822263 691.382057,284.196263 686.814057,283.356263 C686.677057,281.558263 686.095057,279.458263 686.461057,277.538263 C687.181057,273.749263 688.419057,270.057263 689.459057,266.330263 C689.746057,265.301263 690.547057,264.179263 690.335057,263.286263 C689.033057,257.846263 693.808057,257.519263 696.650057,254.679263 Z M626.988657,245.188863 C629.643657,245.580863 630.880657,247.192863 630.827657,250.132863 C630.757657,254.030863 631.005657,257.971863 630.497657,261.811863 C630.022657,265.399863 628.739657,268.880863 627.812657,272.407863 C627.222657,272.426863 626.631657,272.445863 626.041657,272.464863 C622.793657,267.615863 620.422657,262.518863 621.687657,256.269863 C622.172657,253.872863 622.395657,251.423863 622.826657,249.014863 C623.236657,246.725863 624.056657,244.755863 626.988657,245.188863 Z M675.163757,243.580163 C677.391757,250.649163 676.710757,256.891163 670.115757,266.232163 C665.099757,261.124163 667.162757,254.984163 667.519757,249.280163 C667.687757,246.598163 671.837757,243.854163 675.163757,243.580163 Z M790.540257,243.142763 C793.011257,243.892763 793.014257,245.249763 792.290257,247.685763 C791.203257,251.345763 791.709257,255.434763 789.506257,258.870763 C788.656257,260.197763 787.866257,261.564763 786.558257,263.721763 C785.445257,262.321763 784.697257,261.751763 784.454257,261.015763 C782.714257,255.750763 783.235257,250.545763 785.196257,245.452763 C786.006257,243.347763 788.177257,242.424763 790.540257,243.142763 Z M731.500957,236.217363 C732.650957,237.111363 733.882957,238.070363 735.052957,238.979363 C733.323957,245.990363 733.654957,253.474363 728.694957,260.154363 C726.962957,256.042363 725.484957,252.534363 724.256957,249.617363 C724.729957,246.630363 725.032957,244.082363 725.581957,241.589363 C725.790957,240.635363 726.374957,239.574363 727.118957,238.971363 C728.458957,237.884363 730.048957,237.105363 731.500957,236.217363 Z M664.019757,212.412663 C663.907757,217.791663 664.567757,223.627663 660.595757,228.422663 C659.565757,229.664663 659.512757,231.715663 658.780757,234.165663 C651.665757,225.682663 656.893757,217.242663 657.079757,208.870663 C662.568757,205.983663 664.143757,206.482663 664.019757,212.412663 Z M704.872757,205.517163 C707.678757,205.760163 709.885757,207.965163 709.183757,210.612163 C707.702757,216.201163 706.974757,222.199163 702.422757,227.262163 C696.562757,220.219163 700.341757,212.918163 700.411757,205.785163 C702.061757,205.672163 703.484757,205.397163 704.872757,205.517163 Z M768.885757,196.707463 C770.921757,198.764463 771.332757,201.277463 770.576757,204.109463 C768.954757,210.183463 768.839757,216.802463 763.785757,222.086463 C761.224757,216.559463 759.372757,211.346463 761.419757,205.361463 C762.322757,202.720463 762.562757,199.854463 763.183757,196.679463 C764.694757,196.324463 766.799757,194.599463 768.885757,196.707463 Z M744.124757,182.051063 C744.270757,182.060063 744.406757,182.254063 744.911757,182.644063 C745.157757,190.534063 742.183757,197.492063 737.302757,204.197063 C734.218757,200.570063 734.050757,196.579063 734.416757,192.502063 C734.543757,191.086063 735.151757,189.719063 735.360757,188.303063 C736.136757,183.061063 736.967757,182.236063 742.015757,182.014063 C742.716757,181.982063 743.423757,182.009063 744.124757,182.051063 Z" id="Combined-Shape" fill="#A1483A"/></g></g><g id="Chair" transform="translate(372.000000, 525.000000) scale(1 1)"><g id="Chair/Wooden Chair" stroke="none" stroke-width="1" fill="none" fill-rule="evenodd"><path d="M234.240046,466.469073 C233.243531,472.184318 232.27503,477.904563 231.260505,483.617808 C226.214895,512.019026 221.360383,540.457246 216.013617,568.803461 C213.763453,580.727973 210.482756,592.459476 207.625278,604.268982 C207.24308,605.84805 206.860882,607.539123 205.98643,608.852179 C205.295072,609.890223 203.78329,611.093275 202.754758,610.994271 C201.748238,610.897267 200.359519,609.376201 200.082376,608.248153 C199.573112,606.176064 199.467057,603.900967 199.696176,601.765875 C201.279995,586.978241 202.763763,572.172606 204.715773,557.431974 C208.224588,530.950838 214.690933,505.057728 220.760073,479.089614 C221.084241,477.699554 221.560487,475.206448 222.255847,474.1074 C222.868163,473.139359 226.444013,471.641295 227.466542,470.933264 C230.616172,468.758171 231.062403,468.604164 234.240046,466.469073 Z M86.6076724,416.303922 C90.1405,418.669023 93.3871796,420.844116 96.9620289,423.237219 C94.3436744,436.54479 91.6122614,450.049369 89.0409312,463.583949 C84.2284415,488.918036 79.4639768,514.261122 74.7755513,539.61821 C73.0266466,549.077615 71.687954,558.613024 69.8730151,568.059429 C69.1936637,571.595581 67.7959406,575.014728 66.5162786,578.406873 C66.486263,578.485877 66.455247,578.56488 66.4232304,578.643883 C65.372687,581.186992 61.6387553,580.997984 60.8963713,578.348871 C60.5631989,577.15682 60.3791037,575.973769 60.1389794,574.82472 C58.3980788,566.493362 59.0414116,558.123003 60.6222294,549.895651 C67.4107413,514.581136 74.4033588,479.305623 81.3029281,444.01211 C83.0768458,434.937721 84.7817278,425.851331 86.6076724,416.303922 Z M386.896019,405.330451 C395.975716,427.381397 404.543149,448.20729 413.122587,469.027183 C422.327349,491.36414 431.637165,513.658097 440.687847,536.058057 C442.784932,541.24728 444.123625,546.757516 445.610394,552.174748 C446.024608,553.679813 446.12466,555.152876 445.832509,556.564937 C445.191177,559.66907 441.495265,560.83612 439.18607,558.664027 C438.114516,557.656983 437.250069,556.433931 436.45966,555.23588 C432.664697,549.484633 428.661626,543.752387 425.808149,537.52312 C419.231747,523.166504 412.854448,508.685883 407.191519,493.951251 C398.0708,470.218234 389.62343,446.225205 380.790861,422.381182 C380.376647,421.263134 379.702298,420.284092 379.722829,419.30405 C379.722829,419.30405 380.453686,417.362967 381.116029,416.302921 C383.106059,413.113785 384.65486,409.649636 386.896019,405.330451 Z M399.805698,339.756639 C402.796245,345.451883 403.701713,350.428097 403.508613,355.489314 C403.07739,366.813799 400.376993,377.487257 392.527933,386.135628 C387.779476,391.366852 383.075043,396.785084 377.596208,401.182273 C355.251649,419.120042 330.656925,433.53366 304.921612,446.013196 C291.530684,452.507474 277.130235,455.360596 262.461646,457.277679 C234.521192,460.929835 207.408166,456.61765 180.576285,449.252335 C175.149477,447.763271 169.771695,446.096199 164.341886,444.616136 C142.015336,438.528875 122.777384,426.625364 104.568964,412.837773 C91.7963566,403.165358 80.2193675,392.124885 68.6073603,381.117413 C65.2446207,377.929276 66.0460353,374.77114 67.0955783,370.422954 C69.4988215,372.496043 71.5688924,374.162114 73.5038935,375.971192 C81.7331507,383.666522 89.5782091,391.817871 98.2266832,399.00518 C106.439932,405.831472 115.281506,411.964735 124.204122,417.861988 C136.913697,426.264349 151.311145,430.96355 165.79964,435.173731 C189.237766,441.983023 213.067093,446.735227 237.540754,447.825273 C255.544068,448.628308 273.076137,446.653223 289.926855,439.878933 C319.305053,428.067426 346.14894,411.914733 371.144871,392.606905 C374.438575,390.061796 377.440127,387.097669 380.36364,384.119541 C393.229296,371.008979 398.569058,359.025465 399.805698,339.756639 Z M278.228803,293.794668 C288.292009,294.810711 298.224147,295.518742 308.06824,296.8778 C321.739312,298.764881 335.353355,301.08098 348.973401,303.329077 C358.774471,304.946146 367.74111,308.851314 376.391585,313.616518 C392.539939,322.511899 398.836196,338.135569 393.210286,355.698323 C390.679977,363.598661 386.747943,370.80297 381.055998,376.794227 C375.813286,382.313464 370.432502,387.871702 364.35836,392.400896 C342.88225,408.417583 319.964394,422.063169 295.449712,433.015638 C275.200236,442.063026 254.08031,445.079156 232.111945,443.224076 C201.496107,440.639965 171.801745,434.113685 143.273987,422.580191 C134.96669,419.222047 127.379765,414.64185 120.386147,409.021609 C117.990908,407.096527 115.23148,405.626464 112.655147,403.924391 C97.8264761,394.127971 83.4510394,378.437298 70.8395151,366.293777 C78.3764141,370.161943 79.6160554,368.729881 82.1443634,367.209816 C85.3920435,365.255732 84.596632,360.361522 84.3655124,356.355351 C98.1366366,351.21213 112.00281,346.033908 126.297205,340.695679 C127.134638,343.025779 127.610884,344.392838 128.117146,345.749896 C129.482853,349.408053 132.292306,351.088125 136.03124,351.456141 C140.30245,351.876159 142.612645,350.365094 143.595153,346.191915 C144.004365,344.45384 143.99536,342.59176 143.983354,340.786683 C143.969347,338.814598 143.731224,336.843514 143.556133,334.376408 C153.225135,330.91526 162.740058,327.510114 172.736229,323.93196 C173.602677,325.841042 174.140956,327.772125 175.249529,329.28419 C176.708284,331.274275 178.304109,333.545372 180.394191,334.616418 C185.565866,337.266532 189.959139,334.432411 190.090207,328.616161 C190.167246,325.197014 189.798055,321.767867 189.608958,317.939703 C197.779184,314.974576 206.39264,311.839442 214.884033,308.75831 C215.196195,310.16137 215.84553,311.486427 216.571906,312.669477 C217.425348,314.059537 218.206752,315.5236 219.249291,316.762653 C221.092245,318.955747 223.405441,320.43181 226.419,319.616775 C229.570631,318.764739 231.352553,316.46964 231.584673,313.298504 C231.820795,310.076366 231.6367,306.824227 231.6367,303.16907 C240.484277,300.327948 249.233803,297.518828 258.295491,294.609703 C260.114432,299.882929 262.972911,303.64809 268.884969,303.383079 C274.652953,303.125068 276.826077,299.042893 278.228803,293.794668 Z M129.943091,65.4008733 C156.366761,58.9055948 179.575767,65.7138867 199.346995,84.3146844 C208.843908,93.2500676 216.209719,103.814521 222.588019,115.107005 C234.278066,135.806893 242.241186,157.997844 248.889625,180.721819 C257.777223,211.101122 264.257575,242.016447 269.673377,273.175784 C270.230665,276.382921 271.30322,279.500055 271.869513,282.706192 C272.499839,286.269345 273.053125,289.8755 273.214209,293.482654 C273.358283,296.703793 271.759456,298.50387 269.120091,299.019892 C265.985469,299.633918 264.245569,298.655876 263.011931,295.087723 C262.187504,292.700621 261.624213,290.187513 261.255022,287.684406 C257.86927,264.807425 251.697077,242.584472 245.786019,220.280515 C241.041565,202.376747 237.01048,184.284972 232.539166,166.307201 C229.196437,152.867624 224.389951,139.955071 218.251775,127.521537 C210.507769,111.833865 199.293968,99.0153148 185.08962,89.0988896 C168.615097,77.5983964 150.261602,72.8241917 130.280265,77.5843958 C118.867361,80.3035124 109.337431,86.7587892 100.975105,94.7801332 C87.070912,108.118705 77.7470886,124.369402 70.8975451,142.28017 C61.4346497,167.024231 58.7302507,192.679332 59.7827952,218.878455 C61.0534525,250.524812 65.2106031,281.867156 70.661423,313.027493 C73.193733,327.502113 76.5794845,341.828728 79.5760347,356.222345 C79.7241113,356.934376 79.8681859,357.648406 79.9712392,358.368437 C80.4284757,361.557574 79.4669783,363.56666 77.1057568,363.912675 C74.4603883,364.300691 73.9581284,362.125598 73.1156926,360.317521 C64.9904892,342.870772 60.6992693,324.332977 57.3165193,305.51617 C52.1018216,276.505926 48.6070137,247.300674 47.1142414,217.861411 C46.9951798,215.50431 47.0982331,213.136209 47.0982331,210.774108 C46.5369428,187.588113 48.2918506,164.629129 54.6761534,142.228168 C56.5141042,135.778891 58.6001834,129.337615 61.2835716,123.203352 C74.6274747,92.6920437 97.6944078,73.3282133 129.943091,65.4008733 Z M93.5172469,109.693773 C94.7358773,118.176137 96.0855755,126.639499 97.1951495,135.135864 C102.630962,176.755649 109.114316,218.200426 119.049455,259.012176 C122.611298,273.643804 127.35075,287.984419 131.230757,302.544043 C134.120252,313.386508 136.574522,324.348978 139.032793,335.301448 C139.621098,337.92556 139.66512,340.729681 139.533052,343.429796 C139.473021,344.651849 138.384458,346.811941 137.737123,346.822613 C136.117285,346.845943 134.209298,346.224916 132.940642,345.208873 C131.95213,344.416839 131.645972,342.675764 131.215749,341.299705 C119.921907,305.205157 111.077331,268.486583 104.957165,231.198983 C100.517868,204.147823 97.5653411,176.853653 93.8804348,149.676487 C92.3966672,138.728018 90.7288043,127.803549 89.0139172,115.968042 C90.0084317,114.582982 91.8433809,112.025873 93.5172469,109.693773 Z M131.577937,81.64557 C135.435932,100.028358 139.020787,117.995129 142.993842,135.873896 C152.801916,180.003788 162.724049,224.108679 172.733227,268.19357 C176.627242,285.346306 180.906456,302.412037 184.950548,319.531772 C185.677924,322.613904 186.014098,325.740038 185.741957,328.857171 C185.639904,330.027222 184.614374,330.91926 183.440767,330.843257 C180.979493,330.68625 179.762864,329.081181 178.956447,327.168099 C176.753307,321.939875 175.144475,316.479641 173.725741,310.986405 C168.347959,290.160512 162.740058,269.380621 157.89255,248.426722 C147.168002,202.069734 137.426962,155.506737 129.809022,108.521723 C128.477333,100.30937 127.012575,92.1190191 125.551819,83.581653 C127.73695,82.8796229 129.563895,82.2925977 131.577937,81.64557 Z M182.309181,92.83905 C185.238697,94.3271138 188.655464,96.6532135 189.950134,99.2603254 C189.950134,99.2603254 190.117221,101.358415 190.275302,103.005486 C193.386912,135.211867 199.686171,166.923227 205.674269,198.684589 C208.968973,216.164339 211.430246,233.804095 214.902042,251.245843 C217.876581,266.194484 221.79761,280.955117 225.208374,295.818755 C225.842702,298.581873 226.370976,301.366993 226.84322,304.162112 C227.912773,310.503384 228.338994,311.390422 226.454018,313.842528 C225.599576,314.954575 223.985742,315.245588 222.889174,314.37155 C221.724572,313.44451 221.066231,312.001449 220.513946,310.612389 C218.912117,306.575216 217.293279,302.487041 216.30777,298.27386 C206.661779,257.048092 200.075372,215.278301 194.066263,173.396505 C190.303317,147.16538 188.023137,120.712245 182.535298,94.7331312 C182.46226,94.3571151 182.223137,93.4540764 182.309181,92.83905 Z" id="Fill" fill="#FFF"/><path d="M227.026564,314.230485 C228.912742,311.77834 228.48625,310.891287 227.416014,304.54991 C226.943468,301.754744 226.414858,298.969579 225.780125,296.206415 C222.367184,281.342532 218.443654,266.581656 215.467217,251.632768 C211.993206,234.190733 209.530362,216.550685 206.233555,199.070647 C200.241637,167.308762 193.938359,135.596879 190.824764,103.389966 C190.666581,101.742869 190.499388,99.644744 190.499388,99.644744 C189.203892,97.0375892 185.784944,94.7114511 182.85356,93.2233627 C182.76746,93.8383993 183.006736,94.7414529 183.079821,95.1174752 C188.571161,121.097018 190.852796,147.550588 194.618144,173.782146 C200.631087,215.664633 207.221696,257.435113 216.873841,298.661561 C217.85998,302.874811 219.47985,306.963054 221.082701,311.000293 C221.635339,312.389376 222.2941,313.832461 223.459445,314.759517 C224.556712,315.633568 226.171577,315.342551 227.026564,314.230485 M234.81756,466.859547 C231.637889,468.994674 231.191373,469.148683 228.039734,471.323813 C227.016553,472.031855 223.438421,473.529944 222.825714,474.498001 C222.12991,475.597066 221.65336,478.090214 221.328986,479.480297 C215.255973,505.448839 208.785502,531.342376 205.274448,557.823949 C203.321193,572.564824 201.836478,587.370703 200.251648,602.158581 C200.022384,604.293708 200.128506,606.568843 200.638095,608.640966 C200.915415,609.769033 202.305019,611.290123 203.312182,611.387129 C204.341371,611.486135 205.854117,610.283063 206.545916,609.245002 C207.420926,607.931924 207.803368,606.240823 208.18581,604.66173 C211.045111,592.852028 214.327902,581.120332 216.579501,569.195624 C221.929679,540.848941 226.787288,512.410252 231.836118,484.008566 C232.85129,478.295226 233.820409,472.574887 234.81756,466.859547 M89.4987666,116.352736 C91.2147479,128.188439 92.883675,139.113087 94.3683893,150.061738 C98.0556468,177.239351 101.010058,204.533972 105.452187,231.585578 C111.576259,268.873792 120.426478,305.592972 131.727526,341.688115 C132.158023,343.064197 132.464377,344.8053 133.453519,345.597348 C134.722985,346.613408 136.63219,347.234445 138.253061,347.211115 C138.900809,347.200443 139.990067,345.040314 140.050136,343.818242 C140.182289,341.118082 140.138238,338.313915 139.549558,335.689759 C137.089718,324.737109 134.633882,313.774458 131.742544,302.931814 C127.860061,288.37195 123.117585,274.031098 119.55347,259.399229 C109.61199,218.586806 103.1245,177.141345 97.6852191,135.520874 C96.5749371,127.02437 95.2243777,118.560867 94.0049697,110.078364 C92.3300357,112.410502 90.4939156,114.967654 89.4987666,116.352736 M87.0909864,416.693569 C85.2638767,426.241136 83.5579069,435.327675 81.7828573,444.402214 C74.8788856,479.69631 67.8818063,514.972404 61.0889629,550.287501 C59.5071365,558.51499 58.8633932,566.885487 60.6054046,575.216981 C60.845682,576.366049 61.0298947,577.54912 61.3632797,578.74119 C62.1061374,581.390348 65.8424516,581.579359 66.8936654,579.036208 C66.9257024,578.957203 66.9567382,578.878199 66.9867729,578.799194 C68.2672514,575.406993 69.6658663,571.987789 70.3456512,568.45158 C72.1617482,559.005019 73.5012949,549.469452 75.2513156,540.009891 C79.9427326,514.652385 84.7102374,489.30888 89.5257978,463.974376 C92.0987687,450.439573 94.8319245,436.934771 97.4519498,423.626981 C93.8748194,421.233838 90.6260682,419.058709 87.0909864,416.693569 M387.570938,405.719917 C385.328349,410.039174 383.778559,413.503379 381.78726,416.692569 C381.124495,417.752632 380.393171,419.693747 380.393171,419.693747 C380.372627,420.673805 381.047406,421.652863 381.461884,422.77093 C390.30009,446.615345 398.75285,470.60877 407.879388,494.342179 C413.545931,509.077054 419.927299,523.557914 426.507897,537.914766 C429.363194,544.144136 433.368819,549.876477 437.166204,555.627818 C437.957117,556.825889 438.822116,558.048962 439.894354,559.056022 C442.205022,561.228151 445.903292,560.061081 446.545033,556.956897 C446.837371,555.544813 446.737255,554.071726 446.322777,552.566636 C444.835059,547.149315 443.495512,541.638988 441.397089,536.449679 C432.340632,514.049349 423.024876,491.755026 413.81424,469.417699 C405.229328,448.597463 396.656429,427.771227 387.570938,405.719917 M126.059982,83.9658131 C127.52167,92.50332 128.987362,100.693806 130.319901,108.906294 C137.942703,155.892084 147.689958,202.455848 158.421349,248.813601 C163.271949,269.767845 168.883429,290.548079 174.264642,311.374316 C175.684281,316.867642 177.29414,322.327966 179.498686,327.556276 C180.305618,329.46939 181.523023,331.074485 183.985867,331.231495 C185.160223,331.307499 186.186408,330.415446 186.288526,329.245377 C186.56084,326.128192 186.224452,323.002006 185.496611,319.919823 C181.449939,302.799806 177.167995,285.733793 173.271496,268.580775 C163.255931,224.495157 153.327467,180.389538 143.513135,136.258918 C139.537544,118.379856 135.950402,100.41279 132.089945,82.0296981 C130.074618,82.6767365 128.246507,83.2637714 126.059982,83.9658131 M400.488854,340.145024 C399.251425,359.414168 393.908256,371.397879 381.034391,384.508658 C378.109013,387.486835 375.105545,390.451011 371.809739,392.996162 C346.797859,412.304308 319.936844,428.457267 290.539901,440.268969 C273.678431,447.043371 256.135175,449.018488 238.120374,448.21544 C213.631097,447.125376 189.786565,442.373094 166.333484,435.563689 C151.835745,431.353439 137.42911,426.65416 124.711425,418.251661 C115.783116,412.354311 106.935901,406.220947 98.717411,399.394542 C90.0634185,392.207115 82.2133544,384.055631 73.9788463,376.360174 C72.0426107,374.551067 69.9712189,372.884968 67.5664422,370.811845 C66.5162296,375.160103 65.7143036,378.31829 69.0791889,381.50648 C80.6986054,392.514133 92.2829814,403.554789 105.063739,413.227363 C123.283777,427.015182 142.534004,438.918889 164.8748,445.00625 C170.308074,446.486338 175.689287,448.153437 181.119557,449.642525 C207.968559,457.007963 235.098885,461.320219 263.057167,457.668002 C277.735115,455.750888 292.144754,452.897718 305.544225,446.403333 C331.29596,433.923592 355.906377,419.509736 378.265193,401.571671 C383.747524,397.17441 388.454959,391.756088 393.206445,386.524778 C401.060514,377.876264 403.762634,367.20263 404.194132,355.877958 C404.387356,350.816657 403.481309,345.840362 400.488854,340.145024 M195.321956,103.160953 C193.413753,116.794762 225.309582,286.032811 232.094416,299.15859 C238.995384,296.593438 245.956422,294.021285 252.905446,291.41513 C255.163052,290.56908 257.168368,289.838037 257.168368,289.838037 C257.168368,289.838037 256.770909,286.906863 256.550655,285.34177 C255.6376,278.878386 254.917769,272.342998 253.363975,266.022623 C244.961273,231.846594 236.432425,197.699566 227.723369,163.599541 C224.070151,149.299692 218.510731,135.690884 211.092165,122.889124 C207.098554,115.995715 201.23178,109.068304 195.321956,103.160953 M97.5450573,105.699103 C98.0236099,108.363262 98.467122,110.490388 98.7824861,112.636515 C102.786109,139.939137 106.189038,167.344764 110.934518,194.516377 C115.241491,219.170841 120.617698,243.660295 126.269224,268.049743 C129.786285,283.232645 134.738002,298.081526 138.946862,313.108418 C140.497653,318.642747 141.762113,324.25708 143.294883,330.390445 C153.277409,326.803232 162.714306,323.41303 171.661637,320.197839 C165.086044,293.700266 158.357275,268.081745 152.431432,242.279213 C146.501585,216.45768 141.07532,190.511139 135.979436,164.511596 C130.906578,138.629059 126.518512,112.613514 121.748003,86.2029459 C111.813533,91.1672407 104.158694,97.6786273 97.5450573,105.699103 M85.9857102,122.285088 C84.9284895,124.315209 83.5408872,126.175319 82.4946792,128.21144 C75.8099607,141.219213 71.1796142,154.98303 68.1361,169.230876 C63.3425651,191.663208 63.5908518,214.368556 65.5951661,237.059903 C66.8886596,251.709773 68.6156537,266.328641 70.4798062,280.919507 C73.3581296,303.442845 77.2205895,325.807172 82.2774284,347.952487 C82.6198237,349.451576 83.2305289,350.889662 83.7451231,352.441754 C97.8393972,347.190442 111.422081,342.128142 125.349162,336.937833 C124.80253,334.909713 124.363023,333.188611 123.872456,331.482509 C113.165093,294.2693 104.620227,256.55306 98.8085162,218.282788 C94.9650783,192.972285 92.222912,167.495773 88.9321123,142.100265 C88.0741216,135.478872 86.9498234,128.892481 85.9857102,122.285088 M213.780269,305.277954 C213.780269,305.277954 213.469911,304.257893 212.942302,301.146708 C210.728746,291.23412 208.093703,281.396536 206.330668,271.405942 C201.536132,244.238329 196.855727,217.044715 192.61483,189.785096 C189.406126,169.159871 187.06342,148.400639 184.098998,127.735412 C182.451095,116.24273 180.167458,104.841053 178.513548,93.3493702 C178.325331,92.0402925 178.005962,90.0921768 178.005962,90.0921768 C178.005962,90.0921768 175.892522,88.3780751 174.485898,87.6850339 C165.356356,83.189767 155.639136,81.1386452 145.610557,80.3996013 C142.830346,80.1955892 139.991068,80.797625 137.260916,81.0226383 C137.387061,93.0293512 187.50493,306.058 189.556299,313.829461 C197.478446,310.978292 205.649882,308.203127 213.780269,305.277954 M47.5563374,211.160365 C47.5563374,213.522506 47.4532183,215.890646 47.5723559,218.247786 C49.0660806,247.687534 52.5631185,276.893268 57.7811435,305.903991 C61.1660519,324.721108 65.46001,343.259209 73.5903978,360.706245 C74.4333712,362.514352 74.9359515,364.689481 77.5830079,364.301458 C79.9457361,363.955438 80.907847,361.946318 80.4503187,358.757129 C80.3471996,358.037086 80.2030332,357.323044 80.0548621,356.611001 C77.0563999,342.217147 73.668488,327.890296 71.1345622,313.415437 C65.6802643,282.254587 61.5204612,250.911726 60.248993,219.264846 C59.1957769,193.065291 61.9019016,167.409768 71.370835,142.665298 C78.2247489,124.754235 87.5545216,108.50327 101.467586,95.164478 C109.835248,87.1430017 119.371259,80.6876184 130.791446,77.968457 C150.785532,73.2081743 169.150737,77.9824578 185.635772,89.4831407 C199.849184,99.3997295 211.07014,112.218491 218.819087,127.906422 C224.961179,140.34016 229.770733,153.252927 233.115595,166.692725 C237.589761,184.670792 241.623419,202.762867 246.3709,220.66693 C252.28573,242.971254 258.461861,265.194574 261.849773,288.071932 C262.2192,290.575081 262.782851,293.08823 263.607803,295.475372 C264.842228,299.043583 266.583239,300.021641 269.71986,299.407605 C272.36091,298.891574 273.960757,297.091467 273.816591,293.870276 C273.655405,290.263062 273.101765,286.656848 272.471037,283.093636 C271.904383,279.887446 270.831144,276.770261 270.2735,273.56307 C264.854242,242.40322 258.369755,211.487385 249.476486,181.107581 C242.823805,158.383232 234.855604,136.191914 223.158098,115.491685 C216.775728,104.199014 209.405218,93.6343872 199.902245,84.6988566 C180.118401,66.0977522 156.894586,59.2893479 130.454056,65.7847336 C98.184796,73.7122043 75.1031445,93.076354 61.750727,123.588166 C59.0656267,129.72253 56.9782164,136.163912 55.1390929,142.613295 C48.7507165,165.014625 46.9946888,187.973989 47.5563374,211.160365 M126.805844,341.08408 C112.502328,346.422396 98.6273069,351.600704 84.8473958,356.744009 C85.0786629,360.750247 85.8745819,365.644538 82.6248295,367.598654 C80.0949083,369.118744 78.854476,370.550829 71.3127679,366.682599 C83.9323392,378.82632 98.3169486,394.517252 113.155082,404.313834 C115.733058,406.015935 118.494246,407.486022 120.891014,409.411136 C127.889094,415.03147 135.48086,419.611742 143.793458,422.969942 C172.339419,434.503626 202.052728,441.030014 232.688101,443.614167 C254.670484,445.469277 275.803885,442.453098 296.066282,433.405561 C320.596606,422.452911 343.529085,408.807101 365.018898,392.79015 C371.096916,388.260881 376.481133,382.702551 381.727191,377.183223 C387.422767,371.191867 391.35731,363.987439 393.889234,356.08697 C399.518734,338.523928 393.218459,322.9 377.059802,314.004472 C368.403807,309.239189 359.431447,305.333957 349.624123,303.716861 C335.995386,301.468727 322.372657,299.15259 308.692861,297.265478 C298.842487,295.906397 288.904012,295.198355 278.834385,294.182295 C277.430764,299.430606 275.256253,303.512849 269.484589,303.770864 C263.568758,304.03588 260.708455,300.270656 258.888354,294.997343 C249.820884,297.906516 241.065775,300.715683 232.212552,303.556851 C232.212552,307.212068 232.396765,310.464261 232.160492,313.686453 C231.928224,316.857641 230.145165,319.152777 226.991524,320.004828 C223.976042,320.819876 221.661369,319.343789 219.81724,317.150658 C218.774035,315.911585 217.992133,314.447498 217.138147,313.057415 C216.411307,311.874345 215.761557,310.549267 215.449196,309.146183 C206.952385,312.227366 198.333434,315.362552 190.157994,318.327728 C190.347212,322.155956 190.716639,325.585159 190.63955,329.004362 C190.508398,334.820708 186.112322,337.654876 180.937347,335.004719 C178.845932,333.933655 177.249088,331.66252 175.789403,329.672402 C174.680122,328.160312 174.1415,326.229198 173.274499,324.320084 C163.271949,327.898297 153.750956,331.303499 144.075784,334.764704 C144.250987,337.231851 144.489262,339.202968 144.503278,341.175085 C144.515292,342.980192 144.524302,344.842303 144.114829,346.580406 C143.131694,350.753654 140.820025,352.264743 136.54609,351.844718 C132.80477,351.476697 129.993524,349.796597 128.626946,346.13838 C128.120361,344.781299 127.643811,343.414218 126.805844,341.08408 M67.7136121,359.080148 C59.6172636,338.859947 55.2702443,318.085714 51.8132526,297.081467 C47.7085131,272.135986 44.6519838,247.060497 43.4425874,221.810998 C41.918828,190.007109 43.9822105,158.556242 55.1290813,128.321447 C67.7166156,94.1774194 91.6612635,71.8460935 126.683702,62.2275224 C155.849379,54.2170467 181.736269,61.2024615 203.638559,82.2377105 C213.982503,92.1713003 221.855594,103.921998 228.673466,116.436741 C240.304896,137.790009 248.167975,160.601363 254.820657,183.881746 C263.217352,213.26349 269.374462,243.137264 274.636538,273.21405 C275.53958,278.373356 276.926181,283.447657 278.24971,289.268003 C285.121644,290.040049 291.957537,290.637084 298.739368,291.603142 C316.376733,294.115291 334.027113,296.567436 351.600405,299.478609 C362.653167,301.308718 372.906005,305.799985 382.378943,311.643331 C398.11211,321.349908 407.163561,335.782765 408.358941,354.123854 C409.122823,365.866551 406.178424,377.263228 398.497555,386.839796 C395.434017,390.659023 392.315417,394.435247 389.170786,398.293476 C394.407833,410.872223 399.683925,423.406967 404.852893,435.987714 C418.800998,469.92973 432.764121,503.865745 446.55104,537.872764 C448.445227,542.547041 449.570527,547.57034 450.662788,552.516633 C451.419662,555.941837 450.927093,559.431044 448.934793,562.486225 C446.677186,565.949431 443.352347,566.913488 440.08157,564.392339 C437.104132,562.096202 434.267857,559.331038 432.187455,556.226854 C428.454144,550.656523 425.042205,544.824177 422.010704,538.840821 C409.655438,514.459374 401.004449,488.580837 391.601592,463.007319 C386.02215,447.833418 380.322569,432.70552 374.692068,417.55062 C374.069349,415.87252 373.55075,414.155418 372.764842,411.798278 C364.579391,417.261603 356.686277,422.528915 348.395704,428.063244 C349.509991,432.073482 350.648305,436.051718 351.716539,440.047956 C354.954277,452.152674 358.320164,464.226391 361.28759,476.397114 C362.174614,480.03533 362.356825,483.986564 362.080506,487.735787 C361.66002,493.451126 357.450159,495.416243 352.345265,492.640078 C348.995397,490.81897 346.695741,487.873795 345.545413,484.392589 C343.161661,477.17116 340.79693,469.902728 339.152031,462.491288 C337.503127,455.059847 336.751259,447.430394 335.574901,439.892946 C335.411712,438.846884 335.066313,437.828824 334.660845,436.225729 C332.796693,437.168785 331.2439,437.92783 329.716136,438.733878 C323.123524,442.207084 316.599991,445.817298 309.938299,449.153496 C294.942985,456.660942 278.881439,460.388163 262.293285,462.02426 C255.084962,462.734303 247.847605,463.140327 240.041592,463.728362 C238.461768,472.164862 236.80886,480.681368 235.278092,489.219875 C230.151172,517.827574 225.250514,546.479275 219.873305,575.039971 C217.85998,585.731606 214.814463,596.231229 212.141377,606.792856 C211.656817,608.70997 210.83587,610.580081 209.920813,612.341185 C208.404062,615.260359 205.825084,616.227416 202.60837,615.9564 C199.450724,615.688384 197.430391,613.913279 196.803667,611.047109 C196.152916,608.069932 195.674363,604.909744 195.940671,601.901566 C197.029928,589.601835 198.168243,577.294105 199.771094,565.053378 C203.620538,535.651632 210.234175,506.787918 217.261289,478.01121 C218.37958,473.430938 219.052357,468.739659 219.893328,464.093383 C219.983432,463.596354 219.824248,463.055322 219.801221,462.771305 C203.04187,459.038083 186.436697,455.338863 169.238839,451.507636 C168.708226,455.488872 168.116543,459.708123 167.586932,463.936374 C166.093207,475.865082 163.693436,487.597779 159.819964,498.990455 C158.830821,501.897628 157.627432,504.7918 156.076641,507.430956 C153.90213,511.134176 151.198008,512.116235 147.31953,511.256184 C143.12769,510.327128 140.464615,507.615967 140.251369,503.398717 C140.106201,500.523546 140.253371,497.545369 140.849059,494.736203 C143.940628,480.167338 147.222418,465.639475 150.426117,451.094611 C150.810561,449.346508 151.124924,447.583403 151.557423,445.395273 C134.124294,438.645872 118.775571,428.707282 103.264661,417.478615 C102.618916,420.446792 102.066278,422.822933 101.588726,425.213075 C95.7800193,454.242798 89.771081,483.23652 84.2677265,512.324247 C81.3653753,527.666158 79.573306,543.215081 76.8361456,558.592994 C75.5696832,565.708417 73.3501204,572.66783 71.3267841,579.629243 C70.7340998,581.668364 69.5597438,583.650482 68.2512329,585.349583 C65.2978227,589.18081 61.564512,588.859791 59.1036706,584.612539 C58.207636,583.069447 57.6549979,581.288342 57.1694372,579.554239 C54.4042444,569.685653 54.9098281,559.684059 56.7879968,549.821473 C63.175372,516.274482 69.8971334,482.790493 76.3425757,449.254502 C79.1197824,434.807644 81.485514,420.282782 84.1575993,405.815923 C84.3948733,404.531847 84.8694213,402.598732 84.8694213,402.598732 C84.8694213,402.598732 82.9371902,400.558611 81.9340319,399.638556 C76.5768462,394.727265 71.5099957,389.495954 66.1087591,384.636665 C62.9711362,381.815498 61.7136843,378.769317 62.3263917,374.523065 C63.1323223,368.925733 63.6158807,363.3214 67.7136121,359.080148" id="Stroke" fill="#000"/></g></g><g id="Table" transform="translate(847.000000, 617.000000)"><path d="M236.737009,80.6903695 C235.992395,82.8453128 235.473664,84.5568563 234.819003,86.214351 C184.36017,214.032618 133.890342,341.84588 83.4205145,469.660144 C82.6858955,471.519821 82.0522241,473.430544 81.1666833,475.216154 C79.3916038,478.79338 75.9943655,480.580992 72.2742947,480.080541 C67.8915674,479.491009 66.4573112,477.259997 67.8765752,472.951111 C72.9939215,457.415101 78.1572439,441.894104 83.3105715,426.371105 C120.76215,313.563375 158.214728,200.756646 195.670305,87.9499161 C196.291982,86.0792291 196.960636,84.2255575 197.736233,81.9935447 C210.661531,81.5611547 223.456895,81.1337693 236.737009,80.6903695 Z M471.55224,72.5590366 C473.568194,79.5973838 475.362264,86.2493826 477.377219,92.83332 C486.312585,122.022643 495.542799,151.123887 504.23729,180.385275 C522.920602,243.267982 541.141153,306.288815 559.956396,369.130486 C568.294072,396.980601 577.61224,424.536451 586.487637,452.22442 C586.543608,452.397576 586.626565,452.561724 586.681537,452.73488 C588.368662,458.041666 588.185757,459.125644 585.454173,460.033462 C581.134413,461.465754 578.197936,460.04247 576.577776,455.566434 C565.570484,425.148002 554.596175,394.71756 543.598878,364.295125 C509.373627,269.609738 475.142378,174.925351 440.915127,80.2399633 C440.241477,78.3772835 439.594812,76.5055956 438.636309,73.7891459 C450.043394,73.3627614 460.700867,72.9644022 471.55224,72.5590366 Z M503.028532,49.9529175 L504.743028,49.9776727 C509.206713,50.076762 513.708379,51.145726 518.065119,52.2737433 C520.722741,52.9613634 522.987567,54.7239529 523.123496,57.9949026 C523.249431,61.0206312 521.556309,63.8311658 518.023141,64.959183 C514.605913,66.0501669 510.9668,66.8258664 507.392654,66.974 C490.153594,67.6906463 472.903539,68.104019 455.659481,68.7085642 C432.248622,69.5293044 408.842759,70.4591429 385.4319,71.2788821 C367.099406,71.9214616 348.762915,72.4329229 330.430422,73.0674951 C306.474845,73.8972434 282.523265,74.8230783 258.567688,75.6498239 C240.053289,76.2894006 221.534892,76.8128727 203.020493,77.436435 C182.329223,78.1330633 161.640952,78.9187718 140.949681,79.5833712 C136.818824,79.7154903 132.675972,79.5113062 128.542116,79.3761843 C127.661572,79.348159 126.768036,79.0118558 125.922474,78.701576 C123.40478,77.7777428 120.926065,76.1592833 121.018373,73.4888751 C121.084983,71.7042658 122.812087,69.3421356 124.458233,68.3952817 C127.193815,66.8248655 130.42314,65.4316091 133.511539,65.2734664 C153.824005,64.2325277 174.156461,63.59195 194.477923,62.7241675 C214.61648,61.8643921 234.74804,60.8464742 254.886597,59.9826952 C269.039258,59.3761482 283.198915,58.9347502 297.354574,58.371242 C305.156528,58.0609622 312.953485,57.6525939 320.75444,57.2892663 L320.75444,57.2892663 L320.760436,57.4213854 C351.420537,56.0621597 382.078638,54.6438807 412.740738,53.3627253 C435.967693,52.3918498 459.200645,51.598134 482.430599,50.7203424 C489.868741,50.4400897 497.31488,49.8115228 504.743028,49.9776727 Z" id="Fill" fill="#FFF" transform="translate(327.558009, 265.056720) rotate(2.000000) translate(-327.558009, -265.056720)"/><path d="M321.381799,57.9123091 C321.3798,57.8682694 321.377801,57.8242297 321.375802,57.7801899 C313.574847,58.1435176 305.777891,58.5518859 297.975937,58.8621657 C283.820277,59.4256738 269.66062,59.8670719 255.507959,60.4736189 C235.369403,61.3373978 215.237842,62.3553158 195.099286,63.2150912 C174.777824,64.0828737 154.445368,64.7234514 134.132901,65.7643901 C131.044503,65.9225327 127.815177,67.3157892 125.079596,68.8862054 C123.43345,69.8330593 121.706345,72.1951894 121.639735,73.9797988 C121.547428,76.650207 124.026142,78.2686665 126.543837,79.1924996 C127.389398,79.5027794 128.282935,79.8390827 129.163478,79.867108 C133.297334,80.0022299 137.440186,80.206414 141.571044,80.0742948 C162.262314,79.4096955 182.950586,78.6239869 203.641856,77.9273587 C222.156255,77.3037964 240.674651,76.7803243 259.18905,76.1407476 C283.144628,75.314002 307.096207,74.3881671 331.051784,73.5584188 C349.384278,72.9238465 367.720769,72.4123853 386.053262,71.7698058 C409.464122,70.9500666 432.869984,70.0202281 456.280844,69.1994879 C473.524902,68.5949427 490.774956,68.1815699 508.014016,67.4649237 C511.588163,67.3167901 515.227276,66.5410906 518.644504,65.4501067 C522.177672,64.3220895 523.870794,61.5115549 523.744859,58.4858263 C523.608929,55.2148765 521.344104,53.452287 518.686482,52.7646669 C514.329741,51.6366497 509.828076,50.5676857 505.36439,50.4685963 C497.936242,50.3024465 490.490104,50.9310133 483.051961,51.2112661 C459.822007,52.0890577 436.589055,52.8827734 413.3621,53.853649 C382.700001,55.1348043 352.041899,56.5530833 321.381799,57.9123091 M439.257672,74.2800696 C440.216175,76.9965193 440.862839,78.8682072 441.53649,80.730887 C475.763741,175.416275 509.994989,270.100661 544.220241,364.786049 C555.217538,395.208484 566.191847,425.638926 577.199139,456.057358 C578.819299,460.533394 581.755776,461.956678 586.075536,460.524386 C588.807119,459.616567 588.990024,458.53259 587.302899,453.225804 C587.247928,453.052648 587.164971,452.8885 587.109,452.715344 C578.233602,425.027375 568.915435,397.471525 560.577758,369.621409 C541.762515,306.779739 523.541964,243.758906 504.858653,180.876198 C496.164161,151.61481 486.933948,122.513567 477.998582,93.3242437 C475.983627,86.7403063 474.189557,80.0883075 472.173602,73.0499603 C461.32223,73.4553258 450.664756,73.8536851 439.257672,74.2800696 M198.357596,82.4844683 C197.581998,84.7164812 196.913345,86.5701528 196.291667,88.4408398 C158.836091,201.247569 121.383513,314.054299 83.931934,426.862029 C78.7786064,442.385028 73.615284,457.906025 68.4979377,473.442035 C67.0786737,477.750921 68.5129299,479.981933 72.8956571,480.571464 C76.615728,481.071916 80.0129663,479.284304 81.7880458,475.707078 C82.6735866,473.921467 83.307258,472.010744 84.041877,470.151067 C134.511705,342.336804 184.981532,214.523542 235.440366,86.7052747 C236.095026,85.0477799 236.613757,83.3362365 237.358371,81.1812931 C224.078258,81.624693 211.282893,82.0520784 198.357596,82.4844683 M507.020532,46.0185833 C511.781063,46.0846429 516.639543,47.6170248 521.228164,49.1594157 C525.450974,50.5796965 528.220538,53.8286264 528.137581,58.6289554 C528.054624,63.4072645 525.878752,67.3978632 521.39008,68.9322469 C516.651537,70.5517073 511.584165,71.6046569 506.589755,71.9910053 C498.270069,72.6335848 489.895412,72.5334945 481.544743,72.785722 C480.292392,72.8237563 479.048037,73.0719801 477.245972,73.289176 C477.622776,75.1408458 477.826671,76.8684038 478.32941,78.5048795 C484.946978,100.045305 491.82741,121.506659 498.204104,143.117147 C507.719169,175.365229 516.724499,207.762444 526.234568,240.011527 C547.158717,310.964512 568.163824,381.893476 591.471737,452.111799 C591.528708,452.284956 591.60167,452.451105 591.668635,452.621259 C593.191845,456.519775 594.197324,460.355233 590.124436,463.437013 C587.219942,465.634995 579.650867,465.905238 576.615442,463.499068 C575.189181,462.369049 574.235676,460.37325 573.579016,458.581634 C567.197326,441.174937 560.923579,423.728203 554.619848,406.292479 L508.522,278.792 L531.294873,386.390811 C531.370512,386.748208 531.418018,387.110794 531.437044,387.475238 L531.446564,387.840178 C531.446564,391.706171 528.312557,394.840178 524.446564,394.840178 L524.446564,394.840178 L520.062186,394.840178 C512.467121,394.840178 505.903941,389.534888 504.311886,382.108557 L504.311886,382.108557 L443.757791,99.6463443 C441.531779,93.4886613 439.305782,87.3309752 437.079801,81.1732859 C436.339185,79.1264401 435.644545,77.061578 434.702034,74.3501328 C373.397664,76.469542 312.175448,78.5862391 251.221577,80.6942092 L174.274583,391.971644 C172.439183,399.396217 165.776971,404.612037 158.128901,404.612037 L153.744524,404.612037 C149.878531,404.612037 146.744524,401.47803 146.744524,397.612037 C146.744524,397.124953 146.795363,396.639199 146.896215,396.16267 L180.327605,238.201556 C149.287326,316.850093 118.242294,395.49676 87.2032376,474.14567 C85.927899,477.376583 84.6445645,480.453358 81.5841515,482.59629 C76.6517094,486.051406 69.9122043,485.801181 65.5724548,481.7195 C63.0387687,479.336351 62.4220885,476.599883 63.5225178,473.299907 C96.5174075,374.340665 129.501303,275.376419 162.464209,176.405166 C172.113206,147.433039 181.698235,118.439893 191.305253,89.4537533 C191.925931,87.5810645 192.484641,85.6883576 193.261239,83.1951092 C191.115352,83.0810063 189.395244,82.8658122 187.683131,82.9178592 C174.247099,83.331232 160.790077,83.4723592 147.387028,84.3851824 C141.027326,84.8175723 134.775568,85.3890877 128.469838,84.2310434 C125.177545,83.6264982 122.193093,82.4684539 119.861302,79.9401739 C116.366115,76.1517575 116.087259,72.1741705 119.323581,68.1725618 C122.964693,63.6715028 127.948108,61.4575062 133.583186,61.2232949 C162.977943,60.000192 192.381695,58.9662595 221.77945,57.7972053 C247.729993,56.7642738 273.676538,55.6402602 299.624082,54.5542808 C326.117343,53.4452807 352.610604,52.3482914 379.102866,51.2172715 C411.219212,49.845034 443.334557,48.4297577 475.449903,47.0615238 C485.973446,46.6121185 496.503985,45.8734524 507.020532,46.0185833 Z" id="Stroke" fill="#000" transform="translate(328.000000, 265.500000) rotate(2.000000) translate(-328.000000, -265.500000)"/></g><g id="Table Objects" transform="translate(952.000000, 421.000000) scale(1 1)"><g id="Table Objects/Laptop" stroke="none" stroke-width="1" fill="none" fill-rule="evenodd"><polygon id="Fill" fill="#FFF" transform="translate(260.072896, 204.573006) rotate(1.000000) translate(-260.072896, -204.573006)" points="89.2299428 249.108687 89.2299428 257.956521 144.591165 256.044687 282.602375 246.639785 307.266721 186.618687 325.629079 205.346476 325.629079 209.218687 308.536165 210.700682 305.706017 213.686688 314.506783 245.426687 318.949754 247.862259 370.303384 245.426687 378.625086 231.318313 383.84583 241.226076 400.212132 245.426687 408.409219 241.226076 411.494104 238.848447 423.607558 236.663611 430.91585 226.258481 423.607558 216.76411 408.409219 213.686688 383.84583 213.686688 386.551628 192.571514 378.625086 178.009493 366.069376 170.222393 332.172165 202.560687 333.093846 186.618687 328.439122 170.222393 324.32796 170.222393 324.32796 180.369336 328.439122 200.437274 318.949754 194.548275 310.168908 178.009493 317.859607 151.189491 232.4141 151.189491 173.783293 154.22149 149.305898 231.318313 147.209881 234.224114 125.270641 238.848447 98.6720391 244.080432"/><path d="M235.5511,213.2737 C236.9121,213.7927 238.4221,213.7867 239.7791,213.2557 C241.6551,212.5227 243.4941,211.8367 244.9981,210.7067 C248.2811,208.2387 248.5931,203.8037 246.2731,200.4297 C243.7721,196.7947 240.9961,195.9447 236.8781,198.2907 C234.4271,199.6867 232.1361,201.6647 230.3541,203.8547 C228.1011,206.6237 228.5941,209.2597 231.5301,211.3597 C232.6841,212.1857 234.0571,212.7047 235.5511,213.2737 M317.2738,148.3855 C319.2168,148.5135 320.6108,150.2935 320.3148,152.2185 C318.9608,161.0555 314.7258,169.1185 312.4378,177.8095 C315.9798,182.4715 321.8238,191.3665 325.6368,196.3855 C323.0248,186.1435 322.1718,181.0975 321.8888,175.7605 C321.7868,173.8465 322.2658,171.7435 323.0468,169.9775 C324.2908,167.1665 327.2718,166.6595 329.1698,169.0585 C330.6938,170.9855 331.8958,173.4075 332.4678,175.7955 C333.5678,180.3755 333.5218,181.3965 334.3118,186.0515 C334.6108,187.8135 334.5298,196.7475 334.1478,198.2705 C335.6488,196.9315 338.5578,193.4425 339.5348,192.4745 C346.5078,185.5665 353.4188,178.5935 360.4408,171.7355 C364.3458,167.9225 365.7958,167.6215 370.4998,170.4275 C382.0258,177.3035 389.4248,186.7355 388.4138,201.0195 C388.1848,204.2525 387.4368,207.7445 387.1668,211.5725 C389.0708,211.7845 391.6888,211.8995 393.7958,211.9685 C401.0588,212.2045 408.3238,212.4085 415.5898,212.4845 C423.7448,212.5705 429.6138,216.8905 430.7408,223.8265 C431.8928,230.9195 427.5148,237.5065 419.9158,240.0015 C418.5468,240.4505 413.5388,240.5495 412.1068,240.6995 L412.09026,240.715741 C411.941968,240.861536 410.804179,241.983914 408.9868,243.8795 C407.5858,245.3425 405.2978,246.5445 403.2948,246.7445 C394.7618,247.5965 386.4648,246.6165 381.3818,240.4335 C380.9468,239.8655 379.9698,238.4555 379.2218,236.1055 C377.8128,238.6345 376.1108,242.4435 374.7818,244.7555 C373.7388,246.5705 372.4308,247.6055 370.0348,247.6875 C352.4188,248.2915 334.8088,249.0895 317.1968,249.7975 C317.1878,249.7975 317.1788,249.7985 317.1698,249.7985 C315.6228,249.8505 314.2048,248.9455 313.3918,247.6275 C307.3778,237.8765 305.2908,227.0315 304.2848,215.9065 C303.6838,209.2715 304.5788,208.5195 311.3958,207.9765 C315.1908,207.6735 318.9758,207.2495 323.8348,206.7755 C320.8288,203.5685 318.2928,200.9395 315.8448,198.2315 C313.3138,195.4295 310.8688,192.5515 308.0028,189.2665 C304.8348,197.8245 301.9418,205.8265 298.9098,213.7755 C295.3488,223.1085 291.6248,232.3795 288.0558,241.7085 C286.3208,246.2465 283.1818,248.7055 278.3148,248.9885 C269.6088,249.4925 260.9048,250.0295 252.1988,250.5515 C227.3518,252.0395 202.5038,253.5035 177.6578,255.0225 C150.2758,256.6975 122.8968,258.4235 95.5158,260.1205 C94.2468,260.1985 92.9728,260.2225 91.7008,260.2395 C86.9648,260.3035 86.2488,259.6525 86.0388,255.1365 C85.7278,248.4475 87.1988,245.6055 93.7368,243.8155 C105.2818,240.6545 116.9788,238.0325 128.6518,235.3625 C134.4768,234.0305 140.3918,233.0915 146.6648,231.8985 C150.4018,220.1165 154.2498,208.3995 157.8238,196.6005 C161.0368,185.9995 164.0098,175.3245 166.9628,164.6475 C167.5708,162.4485 168.0508,160.2155 168.5228,157.9245 C169.1638,154.8145 171.7478,152.4665 174.9068,152.1535 C199.5238,149.7175 295.7918,146.9715 317.2738,148.3855 Z M141.1268,249.0805 C124.4208,250.4805 107.5348,250.6125 91.1508,251.9855 C91.0138,252.5145 90.5838,255.4875 90.4468,256.0165 C90.4468,256.0165 92.2508,255.8605 93.2098,255.8405 C96.1078,255.7805 98.9978,255.4075 101.8948,255.2285 C114.3958,254.4525 126.8978,253.7075 139.3968,252.9195 C139.8658,252.8895 140.3018,252.8465 140.3018,252.8465 L141.1268,249.0805 Z M316.2108,152.3625 C268.1178,152.9515 221.1068,153.0295 174.5658,156.0925 C164.5278,188.5965 154.6878,220.4585 144.7288,252.7025 C190.6388,249.9235 236.4408,247.1505 282.0758,244.3875 C283.2928,241.5745 284.3118,239.4475 285.1488,237.2505 C290.8358,222.3185 296.4338,207.3515 302.1738,192.4405 C303.0138,190.2605 304.8908,186.2565 305.1898,184.1275 C305.1898,184.1275 302.0888,179.9195 299.8398,176.4865 C297.6458,172.5195 302.3848,171.1585 307.2928,173.5905 C307.7328,173.8085 309.2528,175.0065 309.2528,175.0065 C311.5268,168.1205 313.6988,159.9695 316.2108,152.3625 Z M144.5988,236.9625 C127.7608,239.6945 110.0398,243.6285 94.2478,248.4335 C109.4258,247.1065 127.0168,245.7785 142.2568,244.4455 C143.0638,241.8695 143.6838,239.8855 144.5988,236.9625 Z M381.8468,209.1905 C368.2528,209.5975 354.2748,209.9885 342.4138,210.3435 C339.7928,213.5595 338.2388,216.7415 335.6948,218.2235 C333.1818,219.6885 329.6698,219.4335 326.3258,219.9775 C326.2758,221.0535 326.2638,222.4935 326.1308,223.9225 C325.9158,226.2495 325.8508,228.6335 325.2478,230.8635 C324.9958,231.7925 323.5368,232.9545 322.5988,232.9815 C321.6518,233.0075 320.1618,231.9505 319.8078,231.0255 C319.0478,229.0345 318.6028,226.8365 318.5028,224.7005 C318.3108,220.5765 318.4478,216.4385 318.4478,211.8165 C314.9838,212.1205 312.0098,212.3815 308.5438,212.6845 C308.9988,223.4695 310.8738,233.4375 315.6818,242.7815 L317.6238,245.3985 C331.2138,244.8215 349.4058,244.2405 362.9948,243.6185 C365.4868,243.5045 367.9678,243.1645 370.2548,242.9475 C375.0448,231.9545 379.7388,221.2075 381.8468,209.1905 Z M385.9118,215.5375 C384.2418,220.5705 382.5288,227.4945 381.2518,231.9925 C381.2518,231.9925 381.6638,232.8565 382.2358,234.0315 C385.6068,240.9605 396.6698,245.1375 403.7518,242.0455 C405.4448,241.3055 406.9928,239.7415 408.0758,238.1865 C410.8198,234.2465 412.3508,222.4595 411.0068,216.9785 C402.9928,216.6705 394.5038,215.8665 385.9118,215.5375 Z M416.3148,217.6915 L416.4378,219.4275 C420.0478,220.0425 423.3178,220.9145 422.9578,227.3405 C422.4648,230.6205 417.5188,232.9165 414.6668,233.4175 L413.5618,236.5095 C420.2108,237.4685 425.7038,232.8145 426.4528,227.1595 C427.1688,221.7525 423.1308,218.0495 416.3148,217.6915 Z M416.0288,222.3385 C415.8538,224.1975 415.3648,228.2345 415.1908,230.0935 C415.6068,230.3835 418.0738,229.6315 419.0358,228.1165 C419.9978,226.6015 420.2538,224.9695 418.9798,223.5685 C418.1608,222.6665 416.0448,222.1695 416.0288,222.3385 Z M249.6801,197.6567 C253.1871,202.5127 252.8681,208.7947 248.8781,213.1477 C245.8681,216.4307 242.0191,217.7147 236.4911,217.8417 C235.5031,217.5977 233.2771,217.3807 231.3431,216.5117 C224.2921,213.3417 222.4691,206.3277 227.4181,200.4447 C229.5671,197.8907 232.4421,195.6777 235.4171,194.1487 C241.3521,191.0997 245.9281,192.4617 249.6801,197.6567 Z M364.8618,173.1075 C354.1268,184.0065 343.1478,195.1525 332.1798,206.2875 C349.3248,205.7755 366.4758,205.2635 383.4808,204.7555 C385.6148,189.8195 378.4748,177.6825 364.8618,173.1075 Z M326.8408,174.3855 C323.4268,174.3855 328.0298,190.9925 331.2568,198.7955 C330.4118,190.5395 330.4288,175.3405 326.8408,174.3855 Z" id="Stroke" fill="#000" transform="translate(258.461766, 204.121465) rotate(1.000000) translate(-258.461766, -204.121465)"/></g></g><g id="Hanging Lamp" transform="translate(807.000000, 17.000000) scale(1 1)" fill="#000"><g id="Hanging Lamp/Round" stroke="none" stroke-width="1" fill="none" fill-rule="evenodd"><path d="M258.210799,146.645986 C254.876799,148.617986 255.013799,149.116986 253.906799,151.237986 C253.500799,152.996986 253.372799,153.473986 253.394799,154.195986 C254.779799,153.844986 257.569799,153.145986 259.092799,152.758986 C259.092799,152.758986 259.000799,151.308986 258.775799,150.460986 C258.653799,149.999986 258.210799,146.645986 258.210799,146.645986 L258.210799,146.645986 Z M263.627799,145.725986 C263.168799,145.661986 262.813799,145.663986 262.680799,145.745986 L263.555799,151.832986 C263.555799,151.832986 266.314799,150.772986 268.451799,150.305986 C268.381799,149.942986 268.285799,149.555986 268.101799,149.112986 C267.336799,147.275986 265.597799,145.999986 263.627799,145.725986 L263.627799,145.725986 Z M259.798799,156.753986 L253.663799,157.740986 C253.663799,157.740986 254.071799,162.035986 254.155799,163.590986 C255.626799,162.538986 259.092799,161.667986 260.856799,161.461986 L259.798799,156.753986 Z M270.621799,154.636986 C268.519799,155.347986 266.227799,155.288986 264.525799,155.864986 C264.907799,157.484986 265.223799,159.388986 265.566799,160.844986 C267.790799,160.488986 269.716799,160.179986 272.029799,159.808986 C271.268799,158.032986 271.302799,157.023986 270.621799,154.636986 L270.621799,154.636986 Z M263.457799,172.829986 C262.460799,182.513986 262.435799,196.320986 265.565799,193.699986 C268.032799,190.374986 265.551799,178.552986 263.457799,172.829986 L263.457799,172.829986 Z M271.430799,184.714986 C270.142799,190.786986 269.427799,196.175986 267.788799,201.267986 C266.376799,205.655986 268.058799,208.705986 270.663799,211.579986 C272.725799,213.853986 274.905799,213.333986 276.007799,210.333986 C276.676799,208.510986 277.110799,206.430986 276.974799,204.513986 C276.499799,197.794986 274.525799,191.452986 271.430799,184.714986 L271.430799,184.714986 Z M254.653799,205.937986 C255.517799,207.546986 257.627799,208.025986 259.193799,207.085986 C261.597799,205.642986 261.849799,204.465986 261.591799,201.512986 C260.901799,193.619986 260.369799,185.711986 259.832799,177.806986 C259.608799,174.517986 260.118799,171.178986 259.464799,167.918986 C256.536799,179.050986 251.916799,189.919986 253.555799,201.872986 C253.743799,203.243986 253.989799,204.698986 254.653799,205.937986 L254.653799,205.937986 Z M263.557799,209.804986 C256.615799,214.595986 252.001799,213.237986 250.049799,205.410986 C249.022799,201.287986 248.653799,196.712986 249.268799,192.530986 C250.440799,184.553986 252.529799,176.712986 254.220799,168.900986 C254.180799,168.905986 253.765799,168.826986 253.527799,168.996986 C241.069799,177.918986 232.695799,189.618986 229.763799,204.806986 C228.000799,213.938986 230.909799,221.705986 237.966799,227.705986 C254.107799,241.432986 279.757799,241.047986 295.538799,226.914986 C297.010799,225.596986 298.356799,224.053986 299.445799,222.406986 C312.787799,202.228986 304.588799,180.804986 288.598799,169.187986 C282.238799,164.567986 274.761799,163.447986 266.174799,165.390986 C267.600799,167.971986 268.671799,169.999986 269.822799,171.980986 C275.049799,180.983986 279.239799,190.380986 281.000799,200.732986 C281.750799,205.142986 281.613799,209.449986 279.405799,213.439986 C276.964799,217.849986 272.191799,218.770986 268.411799,215.459986 C266.672799,213.937986 265.355799,211.933986 263.557799,209.804986 L263.557799,209.804986 Z M261.759799,141.188986 C268.465799,142.931986 270.536799,144.395986 273.616799,150.889986 C274.394799,152.529986 274.960799,155.357986 275.422799,157.090986 C275.848799,158.686986 275.942799,159.251986 275.942799,159.251986 C278.375799,160.172986 279.719799,160.964986 281.683799,161.538986 C285.934799,162.782986 290.229799,164.846986 293.701799,167.577986 C300.521799,172.944986 305.311799,180.085986 308.252799,188.288986 C313.300799,202.364986 308.958799,220.747986 298.544799,230.107986 C281.115799,245.774986 252.639799,246.201986 234.939799,230.874986 C226.925799,223.934986 223.594799,214.996986 225.429799,204.481986 C227.689799,191.523986 233.885799,180.622986 243.467799,171.641986 C245.566799,169.672986 247.743799,167.787986 249.781799,165.956986 C249.241799,156.948986 247.828799,147.924986 257.516799,142.643986 C257.023799,141.159986 257.055799,139.746986 256.601799,138.380986 C255.667799,138.754986 254.598799,139.246986 253.969799,139.533986 C234.720799,148.319986 219.617799,161.852986 208.595799,179.829986 C193.502799,204.443986 186.135799,231.262986 186.507799,260.158986 C186.674799,273.135986 189.865799,285.352986 196.536799,296.503986 C205.394799,311.309986 218.204799,320.618986 235.311799,323.948986 C248.887799,326.590986 262.368799,326.176986 275.933799,323.877986 C296.270799,320.429986 315.116799,313.229986 332.446799,302.075986 C344.667799,294.208986 354.224799,283.948986 359.821799,270.401986 C367.107799,252.766986 369.449799,234.285986 364.462799,215.940986 C353.732799,176.472986 329.413799,149.353986 289.339799,137.729986 C280.207799,135.081986 271.012799,135.713986 261.817799,137.368986 C261.549799,137.416986 260.813799,137.496986 260.813799,137.496986 C261.060799,138.424986 261.498799,140.208986 261.759799,141.188986 L261.759799,141.188986 Z M260.146799,132.614986 C265.886799,132.295986 271.307799,131.798986 276.730799,131.762986 C280.149799,131.739986 283.667799,132.019986 286.980799,132.824986 C306.210799,137.500986 323.466799,145.711986 337.436799,160.296986 C351.502799,174.983986 362.688799,191.285986 367.917799,211.140986 C373.318799,231.649986 371.916799,251.873986 364.074799,271.536986 C358.742799,284.904986 349.709799,295.493986 337.906799,303.618986 C316.681799,318.228986 293.112799,326.528986 267.544799,329.418986 C257.168799,330.591986 246.886799,330.297986 236.611799,328.559986 C211.151799,324.252986 195.248799,308.892986 186.543799,285.249986 C182.120799,273.235986 181.432799,260.704986 182.358799,248.137986 C184.063799,225.009986 190.252799,203.101986 201.705799,182.835986 C212.889799,163.045986 228.059799,147.308986 248.740799,137.290986 C250.852799,136.267986 253.481799,134.874986 255.803799,133.665986 C255.803799,133.665986 253.811799,120.866986 252.487799,114.532986 C248.290799,94.449986 243.585799,74.469986 239.554799,54.354986 C236.773799,40.471986 234.793799,26.427986 232.426799,12.460986 C232.185799,11.036986 231.580799,9.65798604 231.474799,8.23398604 C231.418799,7.49498604 231.975799,6.14798604 232.450799,6.05298604 C233.318799,5.87898604 234.834799,6.13998604 235.185799,6.74098604 C235.980799,8.10498604 236.409799,9.75598604 236.676799,11.342986 C238.789799,23.878986 240.474799,36.498986 242.972799,48.956986 C246.969799,68.894986 251.562799,88.711986 255.753799,108.611986 C257.395799,116.408986 258.635799,124.290986 260.146799,132.614986 L260.146799,132.614986 Z" id="Stroke" fill="#000" transform="translate(276.578411, 168.061951) rotate(12.000000) translate(-276.578411, -168.061951)"/></g></g></g></svg>